<?xml version="1.0" encoding="utf-8"?>
<!-- Generator: Adobe Illustrator 14.0.0, SVG Export Plug-In . SVG Version: 6.00 Build 43363)  -->
<!DOCTYPE svg PUBLIC "-//W3C//DTD SVG 1.1//EN" "http://www.w3.org/Graphics/SVG/1.1/DTD/svg11.dtd">
<svg version="1.1" id="图层_1" xmlns="http://www.w3.org/2000/svg" xmlns:xlink="http://www.w3.org/1999/xlink" x="0px" y="0px"
	 width="261.466px" height="52.681px" viewBox="0 0 261.466 52.681" enable-background="new 0 0 261.466 52.681"
	 xml:space="preserve">
<g>
	<path fill="#D3D4D3" d="M70.299,38.14V19.585h6.543v16.016c0,1.693-0.977,2.539-2.93,2.539H70.299z M72.936,36.089h0.586
		c0.586,0,0.879-0.26,0.879-0.781V21.929h-1.465V36.089z M77.331,35.21v-2.246h5.762v-1.367h3.32v1.367h5.859v2.246h-5.469
		c0.65,1.498,2.571,2.572,5.762,3.223v1.953c-3.776-0.521-6.381-1.596-7.813-3.223c-1.563,1.758-4.233,2.832-8.008,3.223v-1.953
		c3.189-0.586,5.176-1.66,5.957-3.223H77.331z M77.721,31.987V19.292h4.492c0.195-0.391,0.325-0.879,0.391-1.465h3.516
		c-0.065,0.261-0.163,0.586-0.293,0.977c-0.065,0.261-0.098,0.424-0.098,0.488h6.055v12.695h-2.734V21.44h-8.594v10.547H77.721z
		 M88.659,31.499c-1.499-0.781-2.409-1.953-2.734-3.516v3.223h-2.344v-3.418c-0.327,1.628-1.237,2.865-2.734,3.711v-1.66
		c0.716-0.846,1.138-1.79,1.27-2.832h-1.172v-1.953h2.637v-3.223h2.344v3.223h2.637v1.953h-1.172c0.13,1.107,0.552,2.051,1.27,2.832
		V31.499z M81.725,24.565c-0.327-0.65-0.586-1.497-0.781-2.539h1.758c0,0.717,0.195,1.563,0.586,2.539H81.725z M86.217,24.565
		c0.325-0.65,0.521-1.497,0.586-2.539h1.758c-0.131,1.042-0.391,1.889-0.781,2.539H86.217z"/>
	<path fill="#D3D4D3" d="M97.155,28.179v-9.473h18.066v6.152c0.13,2.344-0.977,3.451-3.32,3.32h-8.496
		c-0.195,0.456-0.424,0.879-0.684,1.27h13.672v7.422c0.064,2.083-1.108,3.092-3.516,3.027h-2.93v-2.148h1.465
		c0.911,0.065,1.333-0.391,1.27-1.367v-4.59h-1.367c-0.717,4.037-3.483,6.934-8.301,8.691v-2.441
		c2.734-1.432,4.329-3.516,4.785-6.25h-2.148c-1.367,4.037-4.753,6.836-10.156,8.398v-2.246c3.255-1.432,5.435-3.482,6.543-6.152
		h-1.27c-1.433,1.237-3.32,2.084-5.664,2.539v-2.148c2.212-0.911,3.711-2.246,4.492-4.004H97.155z M100.67,20.952v1.465h11.035
		v-1.465H100.67z M100.67,25.933h9.766c0.911,0.065,1.333-0.325,1.27-1.172V24.37H100.67V25.933z"/>
	<path fill="#D3D4D3" d="M119.811,28.472v-2.539h22.461v2.539h-11.621c-1.367,2.93-3.19,5.404-5.469,7.422
		c4.556,0,8.398-0.195,11.523-0.586c-0.391-1.041-0.913-2.148-1.563-3.32h3.32c1.431,2.409,2.441,4.916,3.027,7.52h-3.613
		c-0.065-0.586-0.195-1.107-0.391-1.563c-4.492,0.455-9.213,0.684-14.16,0.684h-1.953v-2.734c2.212-2.278,3.809-4.752,4.785-7.422
		H119.811z M121.764,21.538v-2.539h18.457v2.539H121.764z"/>
	<path fill="#D3D4D3" d="M145.69,21.929v-2.344h2.539v-1.758h3.32v1.758h2.246v2.051c0.064-0.064,0.162-0.195,0.293-0.391
		c0.391-0.65,0.65-1.204,0.781-1.66h3.027c-0.847,1.758-1.693,3.256-2.539,4.492h0.586v2.441h-2.539
		c-0.651,0.586-1.334,1.172-2.05,1.758h4.199v2.246c-0.781,1.107-1.66,1.953-2.637,2.539c1.172-0.13,2.408-0.293,3.711-0.488v2.344
		c-0.261,0.065-0.684,0.131-1.27,0.195c-1.107,0.195-1.953,0.326-2.539,0.391v1.66c0.064,2.018-0.912,2.994-2.929,2.93h-2.93v-2.148
		h1.367c0.781,0,1.138-0.391,1.074-1.172v-0.879c-1.367,0.131-2.897,0.195-4.59,0.195v-2.637c0.586,0,1.399-0.032,2.441-0.098
		c0.977,0,1.692,0,2.148,0v-0.879c1.172-0.65,1.953-1.302,2.344-1.953h-3.906c-0.195,0.131-0.522,0.293-0.977,0.488
		c-0.327,0.131-1.042,0.488-2.148,1.074v-2.344c2.083-1.172,3.711-2.246,4.883-3.223h-4.688v-2.441h3.32v-2.148H145.69z
		 M152.038,24.077c0.195-0.195,0.488-0.586,0.878-1.172c0.26-0.455,0.488-0.781,0.684-0.977h-2.05v2.148H152.038z M156.334,26.909
		v-2.344c1.432-1.692,2.278-3.906,2.539-6.641h3.223c-0.195,0.977-0.391,1.889-0.586,2.734h5.859v2.344h-1.367
		c-0.065,4.623-0.977,8.236-2.734,10.84c0.977,1.433,2.246,2.734,3.809,3.906v2.539c-2.67-1.628-4.525-3.06-5.566-4.297
		c-1.107,1.172-3.027,2.604-5.762,4.297v-2.539c1.758-1.367,3.157-2.701,4.199-4.004c-1.237-1.953-2.084-4.427-2.539-7.422
		C157.018,26.519,156.659,26.714,156.334,26.909z M160.533,23.003c-0.195,0.456-0.456,0.879-0.781,1.27h0.195
		c0.26,2.539,0.813,4.721,1.66,6.543c0.716-1.822,1.172-4.427,1.367-7.813H160.533z"/>
	<path fill="#D3D4D3" d="M170.201,23.979v-4.59h8.692v-1.465h4.297v1.465h8.594v4.59h-2.148v1.953h-9.277
		c-1.498,1.237-2.832,2.116-4.004,2.637c3.58,0.131,6.77,0.033,9.57-0.293c-0.262-0.455-0.619-0.977-1.074-1.563h3.223
		c1.105,1.303,2.018,2.865,2.734,4.688h-3.418l-0.391-0.977c-0.652,0.065-1.563,0.131-2.734,0.195
		c-0.586,0.065-1.043,0.098-1.367,0.098v2.148h7.52v2.344h-7.52v2.246h9.375v2.246h-22.461v-2.246h9.278V35.21h-7.422v-2.344h7.422
		v-2.051c-1.043,0.065-2.215,0.098-3.516,0.098h-3.418v-2.344c1.627-0.977,2.864-1.855,3.711-2.637h-3.321v-1.953H170.201z
		 M173.815,21.733v1.855h14.453v-1.855H173.815z"/>
</g>
<g>
	<path fill="#D3D4D3" d="M209.13,28.049l1.099,0.424c-0.231,0.26-0.462,0.511-0.692,0.752h6.933v0.861
		c-0.832,0.88-1.935,1.639-3.309,2.276c1.665,0.47,3.695,0.709,6.092,0.718c-0.271,0.355-0.521,0.725-0.752,1.107
		c-2.683-0.187-4.908-0.613-6.678-1.278c-1.945,0.711-4.326,1.229-7.144,1.552c-0.171-0.337-0.382-0.665-0.632-0.984
		c2.531-0.232,4.683-0.615,6.452-1.148c-0.963-0.501-1.742-1.099-2.339-1.791c-0.752,0.656-1.531,1.244-2.339,1.764
		c-0.22-0.237-0.481-0.483-0.782-0.738C206.815,30.46,208.178,29.288,209.13,28.049z M205.01,27.092h6.489
		c-0.271-0.378-0.6-0.779-0.985-1.203l1.022-0.588c0.401,0.419,0.817,0.884,1.249,1.395l-0.692,0.396h6.361v2.557h-1.112v-1.654
		h-11.22v1.641h-1.112V27.092z M206.815,34.543h9.805v4.348h-1.112v-0.574h-7.58v0.574h-1.112V34.543z M215.507,35.418h-7.58v2.023
		h7.58V35.418z M214.875,30.1h-5.752c0.677,0.729,1.566,1.324,2.669,1.784C213.071,31.387,214.098,30.792,214.875,30.1z"/>
	<path fill="#D3D4D3" d="M225.61,25.916l1.083-0.588c0.481,0.52,0.958,1.085,1.429,1.695l-0.736,0.424h5.609v6.057h-1.203v-0.711
		h-9.497c-0.136,2.625-0.88,4.722-2.233,6.289c-0.271-0.301-0.562-0.602-0.872-0.902c1.283-1.422,1.925-3.555,1.925-6.398v-4.334
		h5.737C226.485,26.937,226.072,26.427,225.61,25.916z M222.317,28.432v3.377h9.475v-3.377H222.317z"/>
	<path fill="#D3D4D3" d="M239.289,30.154c-0.191,1.345-0.547,3.235-1.068,5.674c0.517-0.101,0.993-0.2,1.429-0.301
		c-0.01,0.355-0.005,0.679,0.016,0.971c-1.134,0.255-2.788,0.583-4.963,0.984l-0.226-1.025c1.007-0.15,1.925-0.299,2.752-0.444
		c0.491-2.739,0.822-4.751,0.992-6.036L239.289,30.154z M234.641,28.199h5.158v0.889h-5.158V28.199z M234.836,30.346l1.022-0.205
		c0.331,1.304,0.662,2.903,0.993,4.799l-1.038,0.246C235.543,33.362,235.217,31.749,234.836,30.346z M235.875,25.971l0.917-0.492
		c0.592,0.665,1.098,1.349,1.52,2.051l-0.993,0.547C236.958,27.438,236.476,26.736,235.875,25.971z M239.709,30.646h9.73v0.889
		h-4.512l-0.414,1.49h4.219v4.539c0,0.784-0.381,1.176-1.144,1.176c-0.261,0-0.626-0.005-1.098-0.014
		c-0.07-0.374-0.17-0.711-0.301-1.012c0.341,0.027,0.687,0.041,1.038,0.041c0.301,0,0.451-0.142,0.451-0.424v-3.459h-1.549v4.293
		h-1.008v-4.293h-1.489v4.211h-1.008v-4.211h-1.504v4.99h-1.053v-5.838h3.354l0.346-1.49h-4.061V30.646z M247.274,29.758v-0.424
		h-6.798v-3.076h1.053v2.229h2.331v-3.09h1.083v3.09h2.331v-2.229h1.053v3.5H247.274z"/>
</g>
<radialGradient id="SVGID_1_" cx="33.9063" cy="32.2627" r="29.9698" fx="58.2184" fy="14.7382" gradientUnits="userSpaceOnUse">
	<stop  offset="0" style="stop-color:#E60012"/>
	<stop  offset="0.2037" style="stop-color:#FFFEF2"/>
	<stop  offset="0.3567" style="stop-color:#EA9432"/>
	<stop  offset="0.4955" style="stop-color:#EA5504"/>
	<stop  offset="0.6361" style="stop-color:#E30113"/>
	<stop  offset="0.8369" style="stop-color:#D80C18"/>
</radialGradient>
<path fill-rule="evenodd" clip-rule="evenodd" fill="url(#SVGID_1_)" d="M36.85,25.438c0.088-0.007,0.177-0.013,0.265-0.022
	c-0.305-0.229-0.566-0.508-0.774-0.821c-0.468-0.708-0.667-1.595-0.484-2.49c0.032-0.155,0.074-0.306,0.126-0.452
	c0.004-0.012,0.008-0.025,0.012-0.037c0.056-0.15,0.123-0.296,0.2-0.438l0.017-0.031c0.104-0.184,0.193-0.374,0.268-0.571
	c0.071-0.189,0.128-0.386,0.17-0.587l0.004-0.023c0.222-1.088-0.021-2.167-0.593-3.031c-0.57-0.861-1.468-1.508-2.556-1.729
	l-0.002-0.001c-1.089-0.222-2.168,0.021-3.032,0.592c-0.856,0.566-1.499,1.456-1.726,2.533l-0.003,0.02
	c-0.018,0.094-0.029,0.158-0.036,0.203c-0.281,1.808,0.361,3.351,1.437,4.512c1.099,1.188,2.646,1.982,4.135,2.268
	c0.103,0.02,0.18,0.033,0.234,0.042C35.211,25.479,36.028,25.496,36.85,25.438 M25.006,33.187c-0.029-0.208-0.075-0.414-0.137-0.615
	c-0.062-0.203-0.14-0.398-0.234-0.59c-0.489-0.996-1.342-1.701-2.321-2.035c-0.98-0.334-2.087-0.297-3.085,0.192
	c-0.996,0.491-1.701,1.342-2.036,2.321c-0.333,0.979-0.296,2.084,0.191,3.078h0.001c0.027,0.056,0.06,0.117,0.096,0.182
	c0.882,1.602,2.333,2.43,3.893,2.691c1.598,0.269,3.308-0.049,4.661-0.732c0.064-0.032,0.135-0.069,0.21-0.11
	c0.68-0.376,1.398-0.919,2.054-1.524l0.033-0.031c-0.381,0.004-0.758-0.055-1.114-0.178c-0.803-0.271-1.501-0.854-1.905-1.674
	h-0.001c-0.078-0.155-0.141-0.314-0.191-0.475c-0.052-0.164-0.089-0.331-0.115-0.498V33.187z M35.245,29.005l0.511-0.575
	c-0.25,0.081-0.505,0.152-0.763,0.213c-1.368,0.323-2.827,0.361-4.297,0.062c-0.417-0.085-0.823-0.195-1.214-0.326
	c0.026,0.041,0.052,0.084,0.078,0.125c0.525,0.87,0.904,1.787,1.143,2.722c0.159,0.624,0.254,1.259,0.291,1.896l0.062-0.041
	l0.024-0.017C32.465,32.138,33.861,30.563,35.245,29.005z M42.028,40.048c-1.532,0.402-6.389,0.756-7.731,0.459
	c1.967-1.347,4.43-1.926,5.638-4.549h0c0.009-0.019,0.02-0.037,0.03-0.056c0.409-0.669,0.688-1.229,0.92-1.7
	c0.625-1.263,0.966-1.95,2.502-2.513c0.625-0.228,1.327-0.261,1.974-0.108c0.575,0.133,1.113,0.413,1.521,0.83
	c0.419,0.428,0.705,0.995,0.763,1.693c0.055,0.646-0.091,1.401-0.514,2.248C46.301,38.013,44.257,39.315,42.028,40.048z
	 M26.432,42.541c-2.229,1.007-5.267,1.25-8.038,0.538c-2.424-0.626-4.656-1.98-5.994-4.193c-1.433-2.367-1.771-5.091-1.159-7.583
	c0.613-2.493,2.177-4.753,4.545-6.187c1.687-1.021,3.557-1.485,5.396-1.445c1.028,0.021,2.046,0.201,3.016,0.529
	c-0.444-0.709-0.801-1.475-1.058-2.277c-0.505-1.58-0.625-3.307-0.27-5.045c0.552-2.715,2.153-4.947,4.292-6.362
	c2.141-1.415,4.821-2.015,7.534-1.462s4.946,2.152,6.361,4.293c1.416,2.139,2.015,4.82,1.463,7.534
	c-0.197,0.966-0.526,1.871-0.965,2.698c-0.046,0.088-0.095,0.174-0.144,0.26c1.702-0.74,3.517-1.061,5.282-0.983
	c2.589,0.113,5.072,1.079,6.937,2.817h-0.001l0.015,0.015c0.781,0.782,1.374,1.655,1.8,2.581c0.987,2.146,1.07,4.57,0.511,6.849h0
	c-0.556,2.261-1.747,4.385-3.314,5.948c-0.81,0.807-1.722,1.467-2.701,1.922c-1.544,0.906-3.48,1.461-5.499,1.811
	c-3.345,0.579-7.175,0.957-10.426-0.17c2.045-0.229,3.575-0.133,7.082-1.373c2.014-0.768,4.126-2.092,6.613-4.234
	c1.929-1.659,3.081-3.689,3.268-5.473c0.071-0.68,0.019-1.334-0.15-1.932c-0.166-0.588-0.446-1.122-0.836-1.574
	c-0.714-0.828-1.937-1.467-3.386-1.617c-3.599-0.375-5.316,1.477-7.712,4.063C35.344,36.324,31.198,40.386,26.432,42.541z"/>
</svg>
