<?xml version="1.0" encoding="utf-8"?>
<!-- Generator: Adobe Illustrator 14.0.0, SVG Export Plug-In . SVG Version: 6.00 Build 43363)  -->
<!DOCTYPE svg PUBLIC "-//W3C//DTD SVG 1.1//EN" "http://www.w3.org/Graphics/SVG/1.1/DTD/svg11.dtd">
<svg version="1.1" id="图层_1" xmlns="http://www.w3.org/2000/svg" xmlns:xlink="http://www.w3.org/1999/xlink" x="0px" y="0px"
	 width="271.422px" height="40.078px" viewBox="0 0 271.422 40.078" enable-background="new 0 0 271.422 40.078"
	 xml:space="preserve">
<radialGradient id="SVGID_1_" cx="587.749" cy="-271.9272" r="31.2529" fx="590.4976" fy="-242.6284" gradientTransform="matrix(0.5898 0.8075 0.8709 -0.6361 -89.0441 -622.8788)" gradientUnits="userSpaceOnUse">
	<stop  offset="0.1069" style="stop-color:#FDFCEB"/>
	<stop  offset="0.3248" style="stop-color:#E68013"/>
	<stop  offset="0.5065" style="stop-color:#D71718"/>
	<stop  offset="0.525" style="stop-color:#D71718"/>
	<stop  offset="0.6378" style="stop-color:#D71718"/>
	<stop  offset="0.7426" style="stop-color:#D71718"/>
	<stop  offset="0.7613" style="stop-color:#D71718"/>
	<stop  offset="0.8746" style="stop-color:#D71718"/>
	<stop  offset="0.8903" style="stop-color:#D71718"/>
	<stop  offset="0.9855" style="stop-color:#D71718"/>
</radialGradient>
<path fill="url(#SVGID_1_)" d="M28.857,18.29c0.094-0.007,0.188-0.015,0.279-0.023c-0.32-0.242-0.596-0.534-0.813-0.865
	c-0.491-0.744-0.701-1.675-0.509-2.618c0.032-0.162,0.078-0.319,0.132-0.473c0.002-0.015,0.007-0.026,0.011-0.04
	c0.06-0.156,0.13-0.311,0.212-0.461l0.016-0.031c0.11-0.192,0.206-0.394,0.281-0.602c0.076-0.198,0.137-0.406,0.18-0.615
	l0.005-0.024c0.233-1.145-0.023-2.278-0.623-3.186s-1.542-1.583-2.686-1.818l-0.002-0.002c-1.143-0.232-2.279,0.024-3.186,0.623
	c-0.901,0.595-1.577,1.53-1.814,2.661l-0.005,0.021c-0.021,0.098-0.029,0.168-0.036,0.215c-0.297,1.899,0.378,3.522,1.508,4.742
	c1.155,1.247,2.779,2.083,4.345,2.382c0.11,0.021,0.189,0.036,0.247,0.044C27.135,18.336,27.995,18.352,28.857,18.29 M16.412,26.434
	c-0.03-0.221-0.08-0.436-0.144-0.65c-0.066-0.211-0.148-0.416-0.246-0.617c-0.514-1.047-1.411-1.789-2.439-2.138
	c-1.029-0.353-2.193-0.314-3.243,0.203c-1.045,0.512-1.787,1.41-2.138,2.439c-0.351,1.03-0.313,2.188,0.201,3.237l0.002-0.002
	c0.027,0.059,0.062,0.121,0.101,0.191c0.926,1.684,2.451,2.555,4.092,2.828c1.677,0.283,3.475-0.051,4.897-0.77
	c0.068-0.035,0.142-0.074,0.219-0.117c0.714-0.395,1.47-0.965,2.159-1.602l0.037-0.031c-0.402,0.004-0.796-0.061-1.171-0.188
	c-0.844-0.287-1.582-0.896-2.003-1.76l0,0c-0.082-0.164-0.148-0.33-0.201-0.5c-0.055-0.172-0.094-0.346-0.124-0.521v-0.004H16.412z
	 M27.171,22.04l0.536-0.604c-0.262,0.084-0.532,0.159-0.801,0.223c-1.438,0.338-2.971,0.379-4.516,0.065
	c-0.44-0.089-0.865-0.205-1.278-0.344c0.027,0.045,0.055,0.089,0.08,0.131c0.555,0.915,0.952,1.878,1.2,2.859
	c0.169,0.659,0.27,1.324,0.306,1.992l0.069-0.043l0.022-0.02C24.25,25.331,25.718,23.677,27.171,22.04z M34.3,33.645
	c-1.611,0.422-6.714,0.795-8.124,0.482c2.067-1.416,4.655-2.023,5.924-4.781l0,0c0.011-0.02,0.021-0.037,0.032-0.059
	c0.431-0.703,0.724-1.291,0.968-1.787c0.657-1.328,1.015-2.048,2.629-2.64c0.657-0.24,1.394-0.275,2.074-0.116
	c0.604,0.142,1.168,0.437,1.597,0.874c0.44,0.449,0.742,1.044,0.803,1.781c0.057,0.68-0.096,1.471-0.541,2.359
	C38.791,31.506,36.644,32.875,34.3,33.645z M17.911,36.264c-2.343,1.059-5.536,1.314-8.445,0.563
	c-2.549-0.654-4.893-2.078-6.301-4.4c-1.506-2.49-1.862-5.354-1.219-7.974c0.646-2.62,2.289-4.993,4.779-6.5
	c1.773-1.072,3.738-1.561,5.67-1.52c1.082,0.022,2.152,0.212,3.17,0.557c-0.465-0.746-0.842-1.549-1.111-2.394
	c-0.529-1.662-0.657-3.476-0.283-5.304c0.582-2.85,2.264-5.196,4.512-6.684s5.066-2.119,7.914-1.536
	c2.853,0.58,5.198,2.262,6.688,4.509c1.488,2.248,2.116,5.066,1.534,7.917c-0.206,1.016-0.552,1.968-1.013,2.835
	c-0.048,0.092-0.098,0.184-0.151,0.275c1.789-0.78,3.697-1.116,5.55-1.034c2.723,0.119,5.333,1.133,7.291,2.958l0,0l0.016,0.017
	c0.819,0.822,1.442,1.738,1.89,2.712c1.041,2.256,1.125,4.801,0.539,7.195l0,0c-0.584,2.377-1.835,4.609-3.482,6.252
	c-0.851,0.848-1.81,1.541-2.839,2.02c-1.623,0.953-3.658,1.535-5.778,1.906c-3.515,0.607-7.538,1.006-10.956-0.18
	c2.149-0.242,3.758-0.141,7.444-1.443c2.115-0.805,4.336-2.197,6.946-4.447c2.026-1.746,3.238-3.879,3.435-5.756
	c0.073-0.715,0.021-1.4-0.157-2.028c-0.174-0.618-0.47-1.18-0.879-1.654c-0.75-0.872-2.036-1.541-3.56-1.7
	c-3.779-0.393-5.584,1.55-8.103,4.27C27.276,29.73,22.92,34,17.911,36.264z"/>
<g>
	<path fill="#D3D3D3" d="M66.509,28.965v2.521h-2.73V10.036h7.38v18.929H66.509z M66.509,12.856v13.259h1.92V12.856H66.509z
		 M83.218,29.355c1.56,2.07,4.29,3.359,8.04,3.869c-0.72,0.631-1.62,1.95-2.04,2.851c-3.87-0.78-6.569-2.431-8.339-5.011
		c-1.44,2.431-4.11,4.051-9.209,5.07c-0.27-0.779-1.05-2.07-1.65-2.67c4.83-0.81,7.11-2.1,8.19-4.109h-6.39v-2.85h7.319
		c0.09-0.57,0.15-1.201,0.21-1.831h3.12c-0.06,0.63-0.12,1.23-0.21,1.831h8.22v2.85H83.218z M75.298,25.485h-2.79V10.516h5.22
		c0.45-0.9,0.87-1.86,1.11-2.67l3.72,0.78c-0.42,0.63-0.84,1.29-1.26,1.89h8.64v14.969h-2.91V13.186h-11.73v9.45
		c0.9-0.57,1.89-1.5,2.58-2.49h-2.01v-2.25h1.65c-0.36-0.81-1.14-2.1-1.74-2.97l2.04-0.96c0.69,0.93,1.47,2.13,1.83,2.88l-2.01,1.05
		h2.22v-4.14h2.49v4.14h4.14v2.25h-2.25c0.72,0.84,1.71,1.92,2.19,2.61l-1.71,1.47c-0.42-0.75-1.41-1.95-2.16-2.82l1.62-1.26h-1.83
		v4.08h-2.49v-3.15c-0.87,1.38-2.07,2.82-3.21,3.72c-0.27-0.6-0.84-1.53-1.35-2.07V25.485z M82.558,16.966
		c0.51-0.87,1.17-2.13,1.5-3l2.4,0.96c-0.81,1.05-1.53,2.13-2.1,2.85L82.558,16.966z"/>
	<path fill="#D3D3D3" d="M119.278,23.266c0,0-0.06,0.96-0.12,1.41c-0.63,6.48-1.32,9.209-2.31,10.2c-0.72,0.779-1.5,1.05-2.43,1.141
		c-0.84,0.09-2.25,0.09-3.75,0.06c-0.03-0.9-0.39-2.19-0.93-3.03c1.26,0.12,2.43,0.12,2.97,0.12c0.54,0,0.81-0.03,1.11-0.36
		c0.57-0.539,1.17-2.369,1.59-6.42h-2.58c-1.56,4.021-4.11,7.59-6.87,9.87c-0.6-0.601-2.01-1.71-2.82-2.19
		c2.52-1.799,4.65-4.529,6-7.68h-2.58c-2.22,3.721-5.58,6.93-8.94,9c-0.57-0.72-1.89-1.979-2.64-2.55c2.94-1.47,5.67-3.78,7.56-6.45
		h-2.61c-1.47,1.41-3.09,2.67-4.65,3.631c-0.6-0.66-1.95-1.98-2.7-2.521c2.73-1.44,5.37-3.6,7.2-6.06h-2.64V9.286h19.739v12.149
		h-12.929c-0.39,0.63-0.81,1.23-1.26,1.83H119.278z M100.649,14.026h12.599v-1.86h-12.599V14.026z M100.649,18.585h12.599v-1.89
		h-12.599V18.585z"/>
	<path fill="#D3D3D3" d="M136.559,22.065c-1.77,3.03-3.84,5.94-5.88,8.34l11.97-0.72c-0.96-1.44-1.95-2.91-2.85-4.2l3.27-1.71
		c2.49,3.3,5.34,7.56,6.84,10.38l-3.48,2.1c-0.449-0.899-0.989-1.979-1.68-3.149c-15.089,1.17-17.219,1.289-18.839,1.89
		c-0.21-0.81-0.9-2.851-1.38-3.989c0.84-0.24,1.47-0.9,2.46-2.011c0.81-0.87,2.789-3.72,4.47-6.93h-8.13v-3.72h26.999v3.72H136.559z
		 M147.238,13.666h-20.52v-3.66h20.52V13.666z"/>
	<path fill="#D3D3D3" d="M179.068,16.786c-0.63,4.47-1.65,8.13-3.24,11.16c1.35,2.189,3.12,3.9,5.31,5.01
		c-0.81,0.72-1.92,2.13-2.46,3.12c-2.04-1.229-3.72-2.851-5.039-4.8c-1.681,1.949-3.75,3.57-6.36,4.89
		c-0.33-0.84-1.38-2.49-2.04-3.239c2.82-1.23,4.92-2.91,6.45-5.131c-0.811-1.83-1.5-3.87-2.04-6.06c-0.45,0.72-0.9,1.44-1.38,2.07
		c-0.39-0.45-1.23-1.23-1.98-1.86c-1.17,1.35-2.67,2.73-4.14,3.9v0.84c1.771-0.15,3.57-0.301,5.37-0.45v3.06
		c-1.8,0.18-3.6,0.33-5.37,0.48v2.85c0,1.561-0.27,2.37-1.319,2.85c-1.051,0.48-2.46,0.51-4.351,0.51
		c-0.119-0.93-0.569-2.159-1.02-3.029c1.2,0.029,2.46,0.029,2.85,0.029c0.391-0.029,0.51-0.119,0.51-0.42v-2.52
		c-2.1,0.18-4.079,0.36-5.699,0.51l-0.39-3.18c1.68-0.119,3.81-0.27,6.089-0.449v-1.71c0.811-0.57,1.681-1.32,2.49-2.1h-1.89
		c-1.44,1.2-2.97,2.31-4.59,3.21c-0.48-0.69-1.71-2.07-2.4-2.7c1.021-0.54,2.04-1.11,3-1.77v-1.5h1.98
		c0.569-0.48,1.14-0.99,1.649-1.53h-6.239v-3.06h4.56v-2.01h-3.42v-3h3.42v-2.73h3.3v2.73h2.91v2.1c0.75-1.26,1.38-2.67,1.89-4.08
		l3.3,0.9c-0.84,2.19-1.89,4.23-3.06,6.09h1.68v2.37c1.38-2.85,2.34-6.42,2.91-10.11l3.6,0.57c-0.3,1.65-0.63,3.33-1.05,4.89h7.979
		v3.3H179.068z M160.679,15.766h1.05c0.45-0.66,0.9-1.32,1.351-2.01h-2.4V15.766z M165.599,21.016c0.51-0.63,0.99-1.38,1.439-2.19
		h-3.51c-0.42,0.54-0.84,1.05-1.29,1.53h1.681l0.63-0.18L165.599,21.016z M171.958,16.786c0.42,2.49,1.021,4.89,1.83,7.02
		c0.72-2.07,1.26-4.38,1.59-7.02H171.958z"/>
	<path fill="#D3D3D3" d="M210.208,32.085v3.149h-26.579v-3.149h11.34v-2.579h-8.729v-3.061h8.729v-2.28h3.66v2.28h9.179v3.061
		h-9.179v2.579H210.208z M187.049,16.156h-3.33v-5.73h11.52c-0.239-0.63-0.51-1.29-0.81-1.8l3.479-1.02
		c0.51,0.87,1.021,1.92,1.351,2.82h10.679v5.73h-3.18v2.4h-3.54c1.83,1.47,3.9,3.33,5.011,4.68l-2.82,1.92
		c-0.39-0.54-0.93-1.2-1.59-1.89c-13.409,1.08-15.029,1.2-16.229,1.68c-0.18-0.66-0.66-2.25-1.02-3.09
		c0.659-0.09,1.319-0.48,2.13-1.08c0.479-0.33,1.56-1.14,2.76-2.22h-4.41V16.156z M187.199,13.666v1.83h19.109v-1.83H187.199z
		 M201.298,20.866c-0.539-0.48-1.079-0.9-1.56-1.32l1.47-0.99h-5.189c-1.08,1.02-2.28,1.98-3.479,2.88L201.298,20.866z"/>
</g>
<g>
	<path fill="#D3D3D3" d="M235.521,21.083c-0.752,1.168-1.809,2.177-3.041,3.025c1.745,0.72,3.777,1.2,5.955,1.457
		c-0.32,0.352-0.753,1.008-0.961,1.424c-0.672-0.096-1.328-0.223-1.969-0.383v4.561h-1.536v-0.479h-5.875v0.513h-1.456v-4.498
		c-0.769,0.224-1.553,0.4-2.321,0.544c-0.128-0.384-0.448-0.977-0.704-1.313c2.049-0.336,4.178-0.928,6.002-1.793
		c-0.656-0.464-1.265-0.976-1.809-1.537c-0.656,0.48-1.408,0.929-2.257,1.329c-0.192-0.336-0.656-0.864-0.977-1.104
		c2.193-0.896,3.714-2.225,4.514-3.425l1.585,0.304c-0.192,0.288-0.416,0.544-0.641,0.816h4.227l0.239-0.064L235.521,21.083z
		 M225.726,21.099h-1.456v-3.186h6.146c-0.208-0.4-0.433-0.816-0.624-1.184l1.473-0.352c0.271,0.448,0.624,1.04,0.864,1.536h5.618
		v3.186h-1.505v-1.841h-10.517V21.099z M234.321,26.301c-1.2-0.352-2.289-0.784-3.313-1.313c-0.96,0.512-1.984,0.944-3.073,1.313
		H234.321z M233.97,29.454v-1.921h-5.875v1.921H233.97z M228.863,21.755c0.576,0.608,1.313,1.152,2.177,1.648
		c0.864-0.528,1.617-1.088,2.209-1.729h-4.29L228.863,21.755z"/>
	<path fill="#D3D3D3" d="M252.626,18.938v6.627h-1.521V24.62h-8.035c-0.191,2.272-0.736,4.866-2.192,6.69
		c-0.272-0.271-0.929-0.736-1.297-0.896c1.841-2.289,2.033-5.602,2.033-7.955v-3.521h5.122c-0.16-0.624-0.513-1.472-0.801-2.128
		l1.457-0.384c0.352,0.72,0.752,1.648,0.928,2.273l-0.8,0.24H252.626z M251.105,23.228V20.33h-7.955v2.129
		c0,0.256,0,0.497-0.016,0.769H251.105z"/>
	<path fill="#D3D3D3" d="M261.071,27.005l0.16,1.376c-1.825,0.465-3.729,0.945-5.218,1.313l-0.32-1.473
		c0.784-0.16,1.841-0.384,2.945-0.641c0.336-1.696,0.672-4.354,0.816-6.21l1.28,0.224c-0.256,1.809-0.624,4.098-0.977,5.714
		L261.071,27.005z M261.151,20.794h-5.33v-1.376h5.33V20.794z M256.878,27.197c-0.032-1.505-0.288-3.778-0.593-5.506l1.121-0.208
		c0.336,1.761,0.592,3.985,0.64,5.505L256.878,27.197z M258.606,16.681c0.416,0.705,0.864,1.649,1.057,2.273l-1.313,0.464
		c-0.177-0.656-0.608-1.633-1.009-2.353L258.606,16.681z M266.386,23.532c-0.145,0.432-0.288,0.848-0.433,1.249h3.985v5.138
		c0,0.576-0.079,0.896-0.432,1.104c-0.368,0.192-0.849,0.224-1.537,0.224c-0.048-0.352-0.224-0.863-0.368-1.184
		c0.385,0.016,0.736,0.016,0.865,0.016c0.128,0,0.176-0.048,0.176-0.191v-3.842h-1.2v4.978h-1.169v-4.978h-1.2v5.01h-1.152v-5.01
		h-1.153v5.154h-1.344V24.78h3.041c0.08-0.4,0.176-0.816,0.224-1.249h-3.697v-1.329h9.268v1.329H266.386z M269.747,21.195h-8.1
		v-3.89h1.36v2.593h1.873v-3.345h1.425v3.345h2.017v-2.593h1.425V21.195z"/>
</g>
</svg>
