<?xml version="1.0" encoding="utf-8"?>
<!-- Generator: Adobe Illustrator 14.0.0, SVG Export Plug-In . SVG Version: 6.00 Build 43363)  -->
<!DOCTYPE svg PUBLIC "-//W3C//DTD SVG 1.1//EN" "http://www.w3.org/Graphics/SVG/1.1/DTD/svg11.dtd">
<svg version="1.1" id="图层_1" xmlns="http://www.w3.org/2000/svg" xmlns:xlink="http://www.w3.org/1999/xlink" x="0px" y="0px"
	 width="306.414px" height="48.814px" viewBox="0 0 306.414 48.814" enable-background="new 0 0 306.414 48.814"
	 xml:space="preserve">
<path fill="#D4D4D4" d="M284.287,21.999l0.834-0.492c0.539,0.664,0.998,1.349,1.381,2.049l-0.9,0.548
	C285.273,23.464,284.833,22.764,284.287,21.999 M283.166,24.227h4.689v0.887h-4.689V24.227z M283.343,26.374l0.93-0.205
	c0.301,1.302,0.602,2.901,0.902,4.797l-0.941,0.246C283.986,29.388,283.691,27.776,283.343,26.374z M287.39,26.18
	c-0.174,1.347-0.496,3.235-0.971,5.675c0.469-0.1,0.902-0.201,1.299-0.301c-0.008,0.357-0.004,0.678,0.016,0.971
	c-1.031,0.256-2.533,0.582-4.514,0.984l-0.205-1.023c0.918-0.15,1.75-0.299,2.502-0.445c0.447-2.738,0.748-4.75,0.902-6.035
	L287.39,26.18z M294.65,25.786v-0.427h-6.18v-3.073h0.957v2.229h2.119v-3.092h0.982v3.092h2.119v-2.229h0.959v3.5H294.65z
	 M287.773,26.671h8.846v0.891h-4.102l-0.375,1.49h3.836v4.539c0,0.783-0.35,1.176-1.041,1.176c-0.236,0-0.57-0.004-0.996-0.014
	c-0.066-0.373-0.156-0.711-0.275-1.014c0.313,0.027,0.625,0.041,0.945,0.041c0.271,0,0.41-0.141,0.41-0.424v-3.459h-1.41v4.293
	h-0.916v-4.293h-1.355v4.211h-0.914v-4.211h-1.365v4.99h-0.957V29.05h3.049l0.313-1.49h-3.689v-0.889H287.773z M270.96,24.458v3.375
	h8.615v-3.375H270.96z M273.958,21.942l0.984-0.588c0.436,0.521,0.871,1.085,1.297,1.695l-0.67,0.424h5.102v6.057h-1.096v-0.711
	h-8.633c-0.123,2.625-0.801,4.725-2.029,6.289c-0.248-0.301-0.512-0.602-0.793-0.9c1.166-1.42,1.75-3.555,1.75-6.398v-4.334h5.215
	C274.753,22.964,274.376,22.454,273.958,21.942z M263.066,26.126h-5.229c0.615,0.729,1.422,1.32,2.428,1.785
	C261.425,27.413,262.359,26.819,263.066,26.126z M263.64,31.444h-6.893v2.025h6.893V31.444z M254.095,23.118h5.902
	c-0.248-0.379-0.547-0.779-0.896-1.203l0.93-0.588c0.365,0.42,0.744,0.883,1.137,1.396l-0.631,0.396h5.785v2.557h-1.014v-1.653
	h-10.199v1.642h-1.014V23.118L254.095,23.118z M255.74,30.569h8.912v4.35h-1.012v-0.572h-6.893v0.572h-1.01L255.74,30.569
	L255.74,30.569z M257.843,24.075l0.998,0.424c-0.209,0.261-0.42,0.513-0.629,0.752h6.303v0.86c-0.758,0.88-1.76,1.638-3.01,2.277
	c1.516,0.469,3.359,0.707,5.537,0.717c-0.244,0.354-0.475,0.726-0.684,1.106c-2.439-0.188-4.461-0.612-6.068-1.278
	c-1.77,0.713-3.936,1.229-6.494,1.553c-0.154-0.336-0.348-0.666-0.576-0.983c2.305-0.231,4.26-0.614,5.867-1.147
	c-0.875-0.502-1.586-1.101-2.127-1.79c-0.684,0.655-1.395,1.243-2.125,1.764c-0.201-0.235-0.438-0.483-0.711-0.738
	C255.74,26.485,256.978,25.313,257.843,24.075z"/>
<g>
	<path fill="#D3D4D3" d="M66.533,28.413V9.858h6.543v16.018c0,1.691-0.977,2.539-2.93,2.539h-3.613V28.413z M69.169,26.362h0.586
		c0.586,0,0.879-0.26,0.879-0.779V12.202h-1.465V26.362z M73.564,25.483v-2.246h5.762v-1.365h3.32v1.365h5.859v2.246h-5.469
		c0.65,1.498,2.571,2.572,5.762,3.225v1.953c-3.776-0.522-6.381-1.599-7.813-3.225c-1.563,1.758-4.233,2.832-8.008,3.225v-1.953
		c3.189-0.586,5.176-1.66,5.957-3.225H73.564z M73.956,22.261V9.565h4.492c0.195-0.391,0.325-0.879,0.391-1.465h3.516
		c-0.065,0.26-0.163,0.586-0.293,0.979c-0.065,0.26-0.098,0.424-0.098,0.486h6.055v12.695h-2.735V11.714h-8.594v10.547H73.956z
		 M84.893,21.772c-1.499-0.779-2.409-1.953-2.734-3.516v3.223h-2.344v-3.418c-0.327,1.627-1.237,2.865-2.734,3.711v-1.66
		c0.716-0.846,1.138-1.791,1.27-2.832h-1.172v-1.951h2.637v-3.225h2.344v3.225h2.637v1.951h-1.173
		c0.13,1.107,0.552,2.053,1.27,2.832L84.893,21.772L84.893,21.772z M77.959,14.839c-0.327-0.65-0.586-1.498-0.781-2.539h1.758
		c0,0.717,0.195,1.563,0.586,2.539H77.959z M82.452,14.839c0.325-0.65,0.521-1.498,0.586-2.539h1.758
		c-0.131,1.041-0.391,1.889-0.781,2.539H82.452z"/>
	<path fill="#D3D4D3" d="M93.389,18.452V8.979h18.066v6.152c0.13,2.344-0.977,3.451-3.32,3.32h-8.496
		c-0.195,0.453-0.424,0.879-0.684,1.27h13.672v7.422c0.064,2.082-1.108,3.091-3.516,3.027h-2.93v-2.148h1.465
		c0.911,0.064,1.333-0.391,1.27-1.367v-4.59h-1.367c-0.717,4.037-3.483,6.936-8.301,8.691v-2.441
		c2.734-1.432,4.329-3.516,4.785-6.25h-2.148c-1.367,4.037-4.753,6.836-10.156,8.398v-2.246c3.255-1.432,5.435-3.482,6.543-6.152
		h-1.27c-1.433,1.236-3.32,2.084-5.664,2.539v-2.146c2.212-0.912,3.711-2.246,4.492-4.004h-2.441V18.452z M96.904,11.226v1.465
		h11.035v-1.465H96.904z M96.904,16.206h9.766c0.911,0.063,1.333-0.326,1.27-1.172v-0.392H96.904V16.206z"/>
	<path fill="#D3D4D3" d="M116.923,12.202V9.858h2.539V8.101h3.32v1.758h2.246v2.053c0.064-0.064,0.162-0.195,0.293-0.393
		c0.391-0.648,0.65-1.205,0.781-1.66h3.027c-0.847,1.76-1.694,3.256-2.539,4.492h0.586v2.441h-2.539
		c-0.651,0.586-1.335,1.172-2.051,1.758h4.199v2.246c-0.781,1.105-1.66,1.953-2.637,2.539c1.172-0.131,2.408-0.293,3.711-0.488
		v2.344c-0.261,0.064-0.684,0.131-1.27,0.195c-1.108,0.195-1.953,0.326-2.539,0.391v1.66c0.064,2.018-0.913,2.993-2.93,2.932h-2.93
		V28.22h1.367c0.781,0,1.138-0.391,1.074-1.172v-0.879c-1.367,0.131-2.897,0.193-4.59,0.193v-2.637c0.586,0,1.399-0.033,2.441-0.098
		c0.977,0,1.692,0,2.148,0v-0.879c1.172-0.65,1.953-1.305,2.344-1.953h-3.906c-0.195,0.131-0.522,0.293-0.977,0.488
		c-0.327,0.131-1.042,0.486-2.148,1.072v-2.344c2.083-1.172,3.711-2.246,4.883-3.223h-4.688v-2.441h3.32v-2.146H116.923z
		 M123.271,14.351c0.195-0.195,0.488-0.586,0.879-1.172c0.259-0.455,0.488-0.781,0.684-0.977h-2.051v2.146L123.271,14.351
		L123.271,14.351z M127.568,17.183v-2.344c1.431-1.693,2.278-3.906,2.539-6.643h3.223c-0.195,0.979-0.391,1.891-0.586,2.734h5.859
		v2.344h-1.367c-0.065,4.623-0.977,8.236-2.734,10.84c0.977,1.434,2.246,2.734,3.809,3.906v2.539
		c-2.67-1.629-4.526-3.061-5.566-4.297c-1.108,1.172-3.027,2.604-5.762,4.297v-2.537c1.758-1.367,3.157-2.701,4.199-4.004
		c-1.237-1.953-2.084-4.428-2.539-7.422C128.252,16.792,127.894,16.987,127.568,17.183z M131.768,13.276
		c-0.195,0.455-0.456,0.879-0.781,1.271h0.195c0.259,2.539,0.813,4.721,1.66,6.543c0.716-1.822,1.172-4.428,1.367-7.813
		L131.768,13.276L131.768,13.276z"/>
	<path fill="#D3D4D3" d="M141.044,12.007V9.663h9.082V8.197h4.297v1.466h8.983v2.344h-11.719c-1.042,0.781-2.214,1.529-3.515,2.246
		c2.54,0,4.295-0.032,5.273-0.099c1.173,0,2.312-0.063,3.418-0.194c-0.131-0.131-0.293-0.356-0.487-0.685
		c-0.262-0.26-0.457-0.455-0.586-0.586h3.223c1.105,1.172,2.115,2.604,3.027,4.297h-3.613l-0.293-0.879
		c-2.93,0.261-6.707,0.424-11.328,0.488h-3.32v-2.343c1.692-0.848,2.896-1.598,3.613-2.246H141.044z M143.389,30.562V17.671h17.871
		v9.766c0.13,2.082-0.879,3.061-3.027,2.932h-2.637V28.22h0.977c0.781,0.063,1.139-0.26,1.074-0.977v-0.393h-10.644v3.711H143.389z
		 M147.002,19.819v1.467h10.644v-1.467H147.002z M147.002,23.335V24.8h10.644v-1.465H147.002z"/>
	<path fill="#D3D4D3" d="M168.292,21.675V12.69h6.737v-4.59h3.711v1.172h9.18v2.148h-9.18v1.27h7.617v5.664
		c0.063,2.279-1.01,3.385-3.225,3.32h-4.004v1.172h9.182v2.344h-4.004c0.648,1.434,1.951,2.441,3.904,3.027v2.051
		c-3.904-0.781-6.443-2.475-7.617-5.078h-1.465v5.471h-3.711V25.19h-1.465c-1.303,2.67-3.842,4.359-7.617,5.078v-2.051
		c1.953-0.586,3.256-1.596,3.906-3.027h-3.906v-2.344h9.082v-1.172H168.292z M171.807,14.839v1.367h10.938v-1.367H171.807z
		 M171.807,19.526h9.863c0.781,0.064,1.141-0.324,1.074-1.172v-0.193h-10.938L171.807,19.526L171.807,19.526z"/>
	<path fill="#D3D4D3" d="M191.044,11.616V9.077h22.461v2.539h-9.57c-0.195,0.846-0.424,1.596-0.684,2.245h9.275v12.402
		c0.063,2.473-1.172,3.711-3.711,3.711h-16.797V13.862h7.229c0.129-0.391,0.26-0.91,0.391-1.563
		c0.064-0.326,0.129-0.553,0.195-0.686h-8.789V11.616z M195.341,27.827h2.146V16.206h-2.146V27.827z M200.712,16.206v2.344h3.125
		v-2.344H200.712z M200.712,20.697v2.441h3.125v-2.441H200.712z M200.712,25.288v2.539h3.125v-2.539H200.712z M209.208,16.206
		h-2.146v11.621h0.586c1.104,0.063,1.627-0.521,1.563-1.759v-9.862H209.208z"/>
	<path fill="#D3D4D3" d="M216.044,18.745v-2.539h22.461v2.539h-11.621c-1.367,2.93-3.191,5.403-5.469,7.422
		c4.557,0,8.396-0.194,11.521-0.586c-0.393-1.041-0.912-2.147-1.563-3.319h3.32c1.432,2.407,2.439,4.916,3.025,7.52h-3.611
		c-0.066-0.586-0.195-1.106-0.393-1.563c-4.49,0.454-9.213,0.684-14.158,0.684h-1.953v-2.733c2.213-2.278,3.809-4.752,4.785-7.422
		L216.044,18.745L216.044,18.745z M217.998,11.812V9.272h18.457v2.539H217.998z"/>
</g>
<g>
	<path fill="#D3D4D3" d="M70.599,34.411c2.449,0.142,3.764,1.396,3.944,3.762c-0.077,2.438-1.418,3.69-4.022,3.763
		c-2.527-0.117-3.842-1.358-3.944-3.728C66.705,35.794,68.045,34.528,70.599,34.411z M70.481,40.95
		c1.727-0.07,2.616-0.984,2.668-2.742c-0.129-1.688-0.993-2.603-2.591-2.742c-1.65,0.117-2.527,1.031-2.629,2.742
		C68.006,39.919,68.857,40.833,70.481,40.95z"/>
	<path fill="#D3D4D3" d="M80.336,37.821l-1.276,0.281c-0.129-0.516-0.49-0.762-1.083-0.738c-0.645,0-0.98,0.188-1.005,0.563
		c-0.052,0.327,0.399,0.563,1.354,0.702c1.547,0.211,2.307,0.772,2.281,1.688c-0.052,1.056-0.902,1.595-2.552,1.617
		c-1.392,0-2.256-0.526-2.591-1.582l1.237-0.315c0.155,0.681,0.605,1.008,1.354,0.983c0.825,0,1.238-0.224,1.238-0.668
		c0.051-0.353-0.361-0.586-1.238-0.703c-1.676-0.233-2.475-0.81-2.397-1.723c0.077-1.009,0.837-1.535,2.282-1.582
		C79.306,36.368,80.104,36.86,80.336,37.821z"/>
	<path fill="#D3D4D3" d="M81.586,37.786h5.646v0.879h-5.646V37.786z"/>
	<path fill="#D3D4D3" d="M92.623,40.036l1.314,0.315c-0.361,1.103-1.276,1.642-2.746,1.617c-1.882-0.07-2.862-0.984-2.939-2.742
		c0.077-1.828,1.044-2.789,2.9-2.883c1.83,0.047,2.771,1.02,2.823,2.918v0.315c-1.238,0-2.694,0-4.37,0
		c0.129,0.914,0.644,1.396,1.547,1.44C91.952,41.044,92.441,40.716,92.623,40.036z M91.152,37.399
		c-0.851,0.07-1.341,0.471-1.47,1.195c0.979,0,1.946,0,2.9,0C92.48,37.821,92.002,37.423,91.152,37.399z"/>
	<path fill="#D3D4D3" d="M100.699,41.829h-1.276c-0.207-0.142-0.323-0.363-0.348-0.668c-0.438,0.517-1.135,0.772-2.088,0.772
		c-1.367-0.022-2.076-0.527-2.127-1.513c0.025-1.055,0.786-1.651,2.282-1.793c1.057-0.094,1.649-0.211,1.779-0.353
		c0.078-0.68-0.309-0.996-1.16-0.948c-0.903-0.048-1.405,0.258-1.508,0.914l-1.237-0.316c0.283-1.125,1.211-1.663,2.784-1.616
		c1.625-0.022,2.423,0.68,2.398,2.108v2.039C100.196,41.067,100.364,41.524,100.699,41.829z M98.92,39.685c0-0.094,0-0.258,0-0.492
		c-0.232,0.211-0.735,0.354-1.508,0.422c-0.876,0.07-1.289,0.328-1.237,0.773c-0.026,0.375,0.31,0.563,1.005,0.563
		C98.264,40.88,98.843,40.458,98.92,39.685z"/>
	<path fill="#D3D4D3" d="M106.149,37.821l-1.276,0.281c-0.129-0.516-0.49-0.762-1.083-0.738c-0.645,0-0.98,0.188-1.005,0.563
		c-0.052,0.327,0.399,0.563,1.354,0.702c1.547,0.211,2.307,0.772,2.281,1.688c-0.052,1.056-0.902,1.595-2.552,1.617
		c-1.392,0-2.256-0.526-2.591-1.582l1.237-0.315c0.155,0.681,0.605,1.008,1.354,0.983c0.825,0,1.238-0.224,1.238-0.668
		c0.051-0.353-0.361-0.586-1.238-0.703c-1.676-0.233-2.475-0.81-2.397-1.723c0.077-1.009,0.837-1.535,2.282-1.582
		C105.119,36.368,105.917,36.86,106.149,37.821z"/>
	<path fill="#D3D4D3" d="M106.886,36.45h1.392c0.644,1.547,1.096,2.647,1.354,3.305c0,0.048,0.025,0.117,0.077,0.211
		c0.052,0.164,0.09,0.281,0.116,0.353c0.051-0.188,0.116-0.387,0.193-0.598c0.257-0.656,0.709-1.746,1.354-3.271h1.392l-2.552,5.448
		c-0.387,1.147-1.044,1.664-1.972,1.547c-0.361-0.022-0.735-0.104-1.122-0.245l0.271-0.81c0.232,0.069,0.464,0.104,0.696,0.104
		c0.361,0.022,0.619-0.164,0.773-0.563l0.31-0.457L106.886,36.45z"/>
	<path fill="#D3D4D3" d="M123.36,36.556l-1.392,0.352c-0.361-0.891-1.044-1.357-2.05-1.404c-1.521,0.068-2.32,0.973-2.397,2.707
		c0.025,1.758,0.799,2.66,2.32,2.707c1.211,0.021,1.959-0.553,2.243-1.725l1.431,0.316c-0.464,1.641-1.676,2.449-3.635,2.426
		c-2.45-0.047-3.7-1.289-3.751-3.727c0.051-2.461,1.34-3.729,3.867-3.797C121.594,34.435,122.715,35.149,123.36,36.556z"/>
	<path fill="#D3D4D3" d="M124.637,34.552h1.276v7.277h-1.276V34.552z"/>
	<path fill="#D3D4D3" d="M130.028,36.345c1.779,0.07,2.707,1.008,2.785,2.813c-0.026,1.828-0.993,2.768-2.9,2.813
		c-1.805-0.095-2.759-0.996-2.862-2.707C127.103,37.364,128.095,36.392,130.028,36.345z M129.952,41.056
		c0.979-0.023,1.482-0.645,1.508-1.863c-0.026-1.219-0.529-1.84-1.508-1.861c-1.032,0.021-1.56,0.654-1.585,1.896
		C128.392,40.399,128.919,41.009,129.952,41.056z"/>
	<path fill="#D3D4D3" d="M137.762,36.45H139v5.379h-1.238v-0.563c-0.361,0.422-0.916,0.646-1.663,0.668
		c-1.496,0.023-2.218-0.645-2.166-2.004v-3.479h1.276v3.375c-0.026,0.818,0.335,1.219,1.083,1.193
		c0.902-0.068,1.392-0.479,1.469-1.229L137.762,36.45L137.762,36.45z"/>
	<path fill="#D3D4D3" d="M144.289,34.552h1.276v7.313h-1.276c0-0.162,0-0.361,0-0.598c-0.31,0.445-0.864,0.68-1.663,0.703
		c-1.624-0.023-2.436-0.938-2.436-2.742c0-1.922,0.863-2.883,2.591-2.883c0.67,0.047,1.173,0.281,1.508,0.703
		C144.289,35.876,144.289,35.044,144.289,34.552z M144.289,39.474v-0.703c-0.026-0.914-0.49-1.383-1.392-1.406
		c-0.954-0.021-1.431,0.6-1.431,1.863c-0.026,1.242,0.451,1.854,1.431,1.828C143.824,41.056,144.289,40.528,144.289,39.474z"/>
	<path fill="#D3D4D3" d="M155.966,35.606h-2.668v6.225h-1.314v-6.225h-2.707v-1.055h6.689V35.606z"/>
	<path fill="#D3D4D3" d="M160.017,40.036l1.313,0.315c-0.361,1.103-1.275,1.642-2.744,1.617c-1.883-0.07-2.862-0.984-2.939-2.742
		c0.077-1.828,1.044-2.789,2.9-2.883c1.83,0.047,2.771,1.02,2.822,2.918v0.315c-1.236,0-2.693,0-4.369,0
		c0.129,0.914,0.645,1.396,1.547,1.44C159.345,41.044,159.836,40.716,160.017,40.036z M158.546,37.399
		c-0.852,0.07-1.342,0.471-1.471,1.195c0.979,0,1.946,0,2.9,0C159.875,37.821,159.397,37.423,158.546,37.399z"/>
	<path fill="#D3D4D3" d="M168.093,41.829h-1.276c-0.206-0.142-0.321-0.363-0.349-0.668c-0.438,0.517-1.135,0.772-2.088,0.772
		c-1.366-0.022-2.075-0.527-2.127-1.513c0.025-1.055,0.787-1.651,2.281-1.793c1.057-0.094,1.649-0.211,1.779-0.353
		c0.077-0.68-0.311-0.996-1.16-0.948c-0.902-0.048-1.406,0.258-1.509,0.914l-1.237-0.316c0.283-1.125,1.213-1.663,2.784-1.616
		c1.624-0.022,2.423,0.68,2.397,2.108v2.039C167.589,41.067,167.757,41.524,168.093,41.829z M166.315,39.685
		c0-0.094,0-0.258,0-0.492c-0.231,0.211-0.735,0.354-1.509,0.422c-0.877,0.07-1.289,0.328-1.237,0.773
		c-0.026,0.375,0.31,0.563,1.007,0.563C165.657,40.88,166.237,40.458,166.315,39.685z"/>
	<path fill="#D3D4D3" d="M174.042,37.997l-1.275,0.28c-0.182-0.586-0.58-0.891-1.199-0.914c-0.979,0-1.469,0.609-1.469,1.828
		c0,1.195,0.488,1.793,1.469,1.793c0.748,0.022,1.186-0.353,1.314-1.125l1.276,0.246c-0.31,1.289-1.187,1.91-2.63,1.863
		c-1.805-0.048-2.732-0.974-2.783-2.777c0.076-1.805,0.991-2.754,2.744-2.848C172.854,36.392,173.706,36.942,174.042,37.997z"/>
	<path fill="#D3D4D3" d="M180.14,38.419v3.41h-1.275v-3.307c0-0.797-0.36-1.193-1.084-1.193c-0.877,0.068-1.354,0.479-1.43,1.229
		v3.271h-1.277v-7.277h1.277v2.531c0.31-0.492,0.851-0.738,1.623-0.738C179.445,36.321,180.167,37.013,180.14,38.419z"/>
	<path fill="#D3D4D3" d="M181.579,34.552h1.276v1.301h-1.276V34.552z M181.579,36.45h1.276v5.379h-1.276V36.45z"/>
	<path fill="#D3D4D3" d="M189.332,38.419v3.41h-1.273v-3.307c0-0.797-0.352-1.193-1.047-1.193c-0.927,0.068-1.431,0.479-1.507,1.229
		v3.271h-1.237V36.45h1.237v0.668c0.358-0.518,0.914-0.773,1.661-0.773C188.662,36.298,189.382,36.989,189.332,38.419z"/>
	<path fill="#D3D4D3" d="M194.648,36.485h1.275v4.57c0.078,1.688-0.889,2.508-2.898,2.461c-0.98,0-1.74-0.258-2.283-0.771
		l0.658-0.668c0.465,0.279,0.992,0.434,1.586,0.455c1.186,0.049,1.74-0.422,1.662-1.404c-0.311,0.396-0.877,0.598-1.701,0.598
		c-1.6-0.07-2.438-0.938-2.514-2.602c0.076-1.76,0.953-2.672,2.629-2.742c0.773,0.047,1.303,0.305,1.586,0.771
		C194.648,36.896,194.648,36.673,194.648,36.485z M194.648,39.368v-0.772c-0.076-0.773-0.529-1.185-1.354-1.23
		c-1.031,0.023-1.563,0.609-1.586,1.759c0.023,1.078,0.516,1.642,1.469,1.688C194.158,40.81,194.648,40.329,194.648,39.368z"/>
	<path fill="#D3D4D3" d="M203.117,41.794h-2.9v-7.277h2.98c2.604,0.023,3.918,1.242,3.945,3.656
		C207.216,40.656,205.876,41.864,203.117,41.794z M203.156,35.606h-1.623v5.203h1.584c1.805,0.023,2.695-0.844,2.67-2.602
		C205.759,36.497,204.882,35.63,203.156,35.606z"/>
	<path fill="#D3D4D3" d="M212.574,40.036l1.313,0.315c-0.359,1.103-1.275,1.642-2.744,1.617c-1.883-0.07-2.861-0.984-2.939-2.742
		c0.078-1.828,1.045-2.789,2.9-2.883c1.83,0.047,2.771,1.02,2.822,2.918v0.315c-1.236,0-2.693,0-4.369,0
		c0.129,0.914,0.645,1.396,1.547,1.44C211.902,41.044,212.392,40.716,212.574,40.036z M211.103,37.399
		c-0.852,0.07-1.342,0.471-1.471,1.195c0.979,0,1.947,0,2.9,0C212.431,37.821,211.955,37.423,211.103,37.399z"/>
	<path fill="#D3D4D3" d="M219.64,37.821l-1.277,0.281c-0.129-0.516-0.49-0.762-1.082-0.738c-0.646,0-0.98,0.188-1.006,0.563
		c-0.051,0.327,0.398,0.563,1.354,0.702c1.547,0.211,2.309,0.772,2.281,1.688c-0.051,1.056-0.902,1.595-2.551,1.617
		c-1.395,0-2.258-0.526-2.592-1.582l1.236-0.315c0.154,0.681,0.605,1.008,1.354,0.983c0.824,0,1.236-0.224,1.236-0.668
		c0.053-0.353-0.359-0.586-1.236-0.703c-1.676-0.233-2.477-0.81-2.396-1.723c0.078-1.009,0.838-1.535,2.281-1.582
		C218.609,36.368,219.408,36.86,219.64,37.821z"/>
	<path fill="#D3D4D3" d="M224.89,41.829l-1.818-2.531l-0.695,0.599v1.935h-1.273v-7.276h1.273v3.866l2.205-2.004h1.816l-2.475,2.146
		l2.553,3.271h-1.586V41.829L224.89,41.829z"/>
	<path fill="#D3D4D3" d="M230.033,40.985l0.232,0.738c-0.361,0.117-0.725,0.188-1.084,0.211c-0.953,0.023-1.418-0.41-1.393-1.301
		v-3.234h-0.813v-0.947h0.813v-1.338l1.236-0.563l0.039,1.897h1.043l-0.037,0.948h-1.006v3.199c-0.025,0.354,0.09,0.504,0.35,0.457
		C229.621,41.056,229.826,41.031,230.033,40.985z"/>
	<path fill="#D3D4D3" d="M233.583,36.345c1.779,0.07,2.707,1.008,2.785,2.813c-0.027,1.828-0.994,2.768-2.9,2.813
		c-1.805-0.095-2.76-0.996-2.861-2.707C230.658,37.364,231.65,36.392,233.583,36.345z M233.505,41.056
		c0.979-0.023,1.48-0.645,1.51-1.863c-0.027-1.219-0.529-1.84-1.51-1.861c-1.031,0.021-1.561,0.654-1.586,1.896
		C231.947,40.399,232.474,41.009,233.505,41.056z"/>
	<path fill="#D3D4D3" d="M238.808,43.622h-1.277V36.45h1.277c0,0.188,0,0.409,0,0.668c0.334-0.492,0.889-0.75,1.66-0.772
		c1.572,0.069,2.387,1.008,2.438,2.813c0.025,1.896-0.824,2.836-2.551,2.813c-0.672-0.023-1.188-0.246-1.547-0.668
		C238.808,42.403,238.808,43.177,238.808,43.622z M238.808,38.876v0.736c0.023,0.914,0.502,1.385,1.43,1.406
		c0.953,0.023,1.418-0.598,1.393-1.863c0-1.219-0.477-1.826-1.432-1.826C239.271,37.329,238.808,37.845,238.808,38.876z"/>
</g>
<radialGradient id="SVGID_1_" cx="30.3545" cy="29.4902" r="29.9698" fx="54.6666" fy="11.9657" gradientUnits="userSpaceOnUse">
	<stop  offset="0" style="stop-color:#E60012"/>
	<stop  offset="0.2037" style="stop-color:#FFFEF2"/>
	<stop  offset="0.3567" style="stop-color:#EA9432"/>
	<stop  offset="0.4955" style="stop-color:#EA5504"/>
	<stop  offset="0.6361" style="stop-color:#E30113"/>
	<stop  offset="0.8369" style="stop-color:#D80C18"/>
</radialGradient>
<path fill-rule="evenodd" clip-rule="evenodd" fill="url(#SVGID_1_)" d="M33.298,22.665c0.088-0.007,0.177-0.013,0.265-0.022
	c-0.305-0.229-0.566-0.508-0.774-0.821c-0.468-0.708-0.667-1.595-0.484-2.49c0.032-0.155,0.074-0.306,0.126-0.452
	c0.004-0.012,0.008-0.025,0.012-0.037c0.056-0.15,0.123-0.296,0.2-0.438l0.017-0.031c0.104-0.184,0.193-0.374,0.268-0.571
	c0.071-0.189,0.128-0.386,0.17-0.587l0.004-0.023c0.222-1.088-0.021-2.167-0.593-3.031c-0.57-0.861-1.468-1.508-2.556-1.729
	l-0.002-0.001c-1.089-0.222-2.168,0.021-3.032,0.592c-0.856,0.566-1.499,1.456-1.726,2.533l-0.003,0.02
	c-0.018,0.094-0.029,0.158-0.036,0.203c-0.281,1.808,0.361,3.351,1.437,4.512c1.099,1.188,2.646,1.982,4.135,2.268
	c0.103,0.02,0.18,0.033,0.234,0.042C31.66,22.707,32.477,22.724,33.298,22.665 M21.454,30.414c-0.029-0.208-0.075-0.414-0.137-0.615
	c-0.062-0.203-0.14-0.398-0.234-0.59c-0.489-0.996-1.342-1.701-2.321-2.035c-0.98-0.334-2.087-0.297-3.085,0.192
	c-0.996,0.491-1.701,1.342-2.036,2.321c-0.333,0.979-0.296,2.084,0.191,3.078h0.001c0.027,0.056,0.06,0.117,0.096,0.182
	c0.882,1.602,2.333,2.43,3.893,2.691c1.598,0.269,3.308-0.049,4.661-0.732c0.064-0.032,0.135-0.069,0.21-0.11
	c0.68-0.376,1.398-0.919,2.054-1.524l0.033-0.031c-0.381,0.004-0.758-0.055-1.114-0.178c-0.803-0.271-1.501-0.854-1.905-1.674H21.76
	c-0.078-0.155-0.141-0.314-0.191-0.475c-0.052-0.164-0.089-0.331-0.115-0.498V30.414z M31.693,26.232l0.511-0.575
	c-0.25,0.081-0.505,0.152-0.763,0.213c-1.368,0.323-2.827,0.361-4.297,0.062c-0.417-0.085-0.823-0.195-1.214-0.326
	c0.026,0.041,0.052,0.084,0.078,0.125c0.525,0.87,0.904,1.787,1.143,2.722c0.159,0.624,0.254,1.259,0.291,1.896l0.062-0.041
	l0.024-0.017C28.913,29.365,30.31,27.791,31.693,26.232z M38.477,37.275c-1.532,0.402-6.389,0.756-7.731,0.459
	c1.967-1.347,4.43-1.926,5.638-4.549h0c0.009-0.019,0.02-0.037,0.03-0.056c0.409-0.669,0.688-1.229,0.92-1.7
	c0.625-1.263,0.966-1.95,2.502-2.513c0.625-0.228,1.327-0.261,1.974-0.108c0.575,0.133,1.113,0.413,1.521,0.83
	c0.419,0.428,0.705,0.995,0.763,1.693c0.055,0.646-0.091,1.401-0.514,2.248C42.75,35.24,40.706,36.543,38.477,37.275z M22.88,39.769
	c-2.229,1.007-5.267,1.25-8.038,0.538c-2.424-0.626-4.656-1.98-5.994-4.193c-1.433-2.367-1.771-5.091-1.159-7.583
	c0.613-2.493,2.177-4.753,4.545-6.187c1.687-1.021,3.557-1.485,5.396-1.445c1.028,0.021,2.046,0.201,3.016,0.529
	c-0.444-0.709-0.801-1.475-1.058-2.277c-0.505-1.58-0.625-3.307-0.27-5.045c0.552-2.715,2.153-4.947,4.292-6.362
	c2.141-1.415,4.821-2.015,7.534-1.462s4.946,2.152,6.361,4.293c1.416,2.139,2.015,4.82,1.463,7.534
	c-0.197,0.966-0.526,1.871-0.965,2.698c-0.046,0.088-0.095,0.174-0.144,0.26c1.702-0.74,3.517-1.061,5.282-0.983
	c2.589,0.113,5.072,1.079,6.937,2.817H50.08l0.015,0.015c0.781,0.782,1.374,1.655,1.799,2.581c0.988,2.146,1.07,4.57,0.512,6.849
	l0,0c-0.557,2.261-1.747,4.385-3.314,5.948c-0.81,0.807-1.722,1.467-2.701,1.922c-1.544,0.906-3.48,1.461-5.499,1.811
	c-3.345,0.579-7.175,0.957-10.426-0.17c2.045-0.229,3.575-0.133,7.082-1.373c2.014-0.768,4.126-2.092,6.613-4.234
	c1.929-1.659,3.081-3.689,3.268-5.473c0.071-0.68,0.019-1.334-0.15-1.932c-0.166-0.588-0.446-1.122-0.836-1.574
	c-0.714-0.828-1.937-1.467-3.386-1.617c-3.599-0.375-5.316,1.477-7.712,4.063C31.792,33.552,27.646,37.613,22.88,39.769z"/>
</svg>
