<?xml version="1.0" encoding="utf-8"?>
<!-- Generator: Adobe Illustrator 14.0.0, SVG Export Plug-In . SVG Version: 6.00 Build 43363)  -->
<!DOCTYPE svg PUBLIC "-//W3C//DTD SVG 1.1//EN" "http://www.w3.org/Graphics/SVG/1.1/DTD/svg11.dtd">
<svg version="1.1" id="图层_1" xmlns="http://www.w3.org/2000/svg" xmlns:xlink="http://www.w3.org/1999/xlink" x="0px" y="0px"
	 width="299.245px" height="40.078px" viewBox="0 0 299.245 40.078" enable-background="new 0 0 299.245 40.078"
	 xml:space="preserve">
<radialGradient id="SVGID_1_" cx="590.5381" cy="-278.5703" r="31.2536" fx="593.2867" fy="-249.2709" gradientTransform="matrix(0.5898 0.8075 0.8709 -0.6361 -85.664 -629.5328)" gradientUnits="userSpaceOnUse">
	<stop  offset="0.1069" style="stop-color:#FDFCEB"/>
	<stop  offset="0.3248" style="stop-color:#E68013"/>
	<stop  offset="0.5065" style="stop-color:#D71718"/>
	<stop  offset="0.525" style="stop-color:#D71718"/>
	<stop  offset="0.6378" style="stop-color:#D71718"/>
	<stop  offset="0.7426" style="stop-color:#D71718"/>
	<stop  offset="0.7613" style="stop-color:#D71718"/>
	<stop  offset="0.8746" style="stop-color:#D71718"/>
	<stop  offset="0.8903" style="stop-color:#D71718"/>
	<stop  offset="0.9855" style="stop-color:#D71718"/>
</radialGradient>
<path fill="url(#SVGID_1_)" d="M28.098,18.114c0.094-0.007,0.188-0.015,0.279-0.023c-0.32-0.242-0.596-0.534-0.813-0.865
	c-0.491-0.744-0.701-1.675-0.509-2.618c0.032-0.162,0.078-0.319,0.132-0.473c0.002-0.015,0.007-0.026,0.011-0.04
	c0.06-0.156,0.13-0.311,0.212-0.461l0.016-0.031c0.11-0.192,0.206-0.394,0.281-0.602c0.076-0.198,0.137-0.406,0.18-0.615
	l0.005-0.024c0.233-1.145-0.023-2.278-0.623-3.186s-1.542-1.583-2.686-1.818l-0.002-0.002c-1.143-0.232-2.279,0.024-3.186,0.623
	c-0.901,0.595-1.577,1.53-1.814,2.661l-0.005,0.021c-0.021,0.098-0.029,0.168-0.036,0.215c-0.297,1.899,0.378,3.522,1.508,4.742
	c1.155,1.247,2.779,2.083,4.345,2.382c0.11,0.021,0.189,0.036,0.247,0.044C26.375,18.16,27.235,18.176,28.098,18.114 M15.652,26.258
	c-0.03-0.221-0.08-0.436-0.144-0.649c-0.066-0.212-0.148-0.417-0.246-0.617c-0.514-1.047-1.411-1.789-2.439-2.138
	c-1.029-0.353-2.193-0.314-3.243,0.203c-1.045,0.512-1.787,1.41-2.138,2.439c-0.351,1.029-0.313,2.188,0.201,3.237l0.002-0.002
	c0.027,0.059,0.062,0.121,0.101,0.191c0.926,1.684,2.451,2.554,4.092,2.827c1.677,0.283,3.475-0.05,4.897-0.769
	c0.068-0.035,0.142-0.074,0.219-0.117c0.714-0.396,1.47-0.965,2.159-1.602l0.037-0.031c-0.402,0.004-0.796-0.061-1.171-0.188
	c-0.844-0.287-1.582-0.896-2.003-1.76l0,0c-0.082-0.164-0.148-0.33-0.201-0.5c-0.055-0.173-0.094-0.347-0.124-0.521v-0.004H15.652z
	 M26.412,21.864l0.536-0.604c-0.262,0.084-0.532,0.159-0.801,0.223c-1.438,0.338-2.971,0.379-4.516,0.065
	c-0.44-0.089-0.865-0.205-1.278-0.344c0.027,0.045,0.055,0.089,0.08,0.131c0.555,0.915,0.952,1.878,1.2,2.859
	c0.169,0.659,0.27,1.324,0.306,1.992l0.069-0.043l0.022-0.019C23.491,25.155,24.958,23.501,26.412,21.864z M33.541,33.469
	c-1.611,0.421-6.714,0.794-8.124,0.481c2.067-1.416,4.655-2.022,5.924-4.78l0,0c0.011-0.02,0.021-0.037,0.032-0.059
	c0.431-0.703,0.724-1.291,0.968-1.787c0.657-1.328,1.015-2.049,2.629-2.64c0.657-0.24,1.394-0.275,2.074-0.116
	c0.604,0.142,1.168,0.436,1.597,0.874c0.44,0.45,0.742,1.044,0.803,1.78c0.057,0.681-0.096,1.472-0.541,2.36
	C38.031,31.33,35.884,32.699,33.541,33.469z M17.151,36.088c-2.343,1.059-5.536,1.314-8.445,0.563
	c-2.549-0.654-4.893-2.078-6.301-4.401c-1.506-2.489-1.862-5.354-1.219-7.973c0.646-2.62,2.289-4.993,4.779-6.5
	c1.773-1.072,3.738-1.561,5.67-1.52c1.082,0.022,2.152,0.212,3.17,0.557c-0.465-0.746-0.842-1.549-1.111-2.394
	c-0.529-1.662-0.657-3.476-0.283-5.304c0.582-2.85,2.264-5.196,4.512-6.684s5.066-2.119,7.914-1.536
	c2.853,0.58,5.198,2.262,6.688,4.509c1.488,2.248,2.116,5.066,1.534,7.917c-0.206,1.016-0.552,1.968-1.013,2.835
	c-0.048,0.092-0.098,0.184-0.151,0.275c1.789-0.78,3.697-1.116,5.55-1.034c2.723,0.119,5.333,1.133,7.291,2.958l0,0l0.016,0.017
	c0.819,0.822,1.442,1.738,1.89,2.712c1.041,2.256,1.125,4.801,0.539,7.195l0,0c-0.584,2.377-1.835,4.609-3.482,6.252
	c-0.851,0.848-1.81,1.541-2.839,2.02c-1.623,0.953-3.658,1.535-5.778,1.906c-3.515,0.607-7.538,1.005-10.956-0.181
	c2.149-0.241,3.758-0.14,7.444-1.442c2.115-0.805,4.336-2.197,6.946-4.447c2.026-1.746,3.238-3.879,3.435-5.756
	c0.073-0.714,0.021-1.4-0.157-2.028c-0.174-0.618-0.47-1.18-0.879-1.654c-0.75-0.872-2.036-1.541-3.56-1.7
	c-3.779-0.393-5.584,1.55-8.103,4.27C26.517,29.554,22.16,33.824,17.151,36.088z"/>
<g>
	<path fill="#D3D3D3" d="M64.968,20.535v2.1h-2.274V4.764h6.148v15.771H64.968z M64.968,7.113v11.047h1.6V7.113H64.968z
		 M78.89,20.86c1.299,1.724,3.574,2.799,6.698,3.224c-0.6,0.525-1.35,1.625-1.7,2.375c-3.224-0.65-5.474-2.025-6.948-4.174
		c-1.2,2.024-3.424,3.375-7.673,4.224c-0.225-0.649-0.875-1.725-1.375-2.225c4.024-0.675,5.924-1.75,6.823-3.424h-5.324v-2.375
		h6.099c0.075-0.475,0.125-1,0.175-1.525h2.599c-0.05,0.525-0.1,1.025-0.175,1.525h6.848v2.375H78.89z M72.292,17.636h-2.324V5.164
		h4.349c0.375-0.75,0.725-1.55,0.925-2.225l3.1,0.65c-0.35,0.525-0.7,1.075-1.05,1.575h7.198v12.472h-2.424V7.388h-9.773v7.874
		c0.75-0.475,1.575-1.25,2.149-2.075h-1.674v-1.875h1.375c-0.3-0.675-0.95-1.75-1.45-2.475l1.7-0.8
		c0.575,0.775,1.225,1.775,1.524,2.399l-1.674,0.875h1.85V7.863h2.074v3.449h3.449v1.875H79.74c0.6,0.7,1.425,1.6,1.825,2.174
		l-1.425,1.225c-0.35-0.625-1.175-1.625-1.799-2.349l1.35-1.05h-1.525v3.399h-2.074v-2.624c-0.725,1.149-1.725,2.349-2.674,3.099
		c-0.225-0.5-0.7-1.275-1.125-1.725V17.636z M78.34,10.538c0.425-0.725,0.975-1.774,1.25-2.5l2,0.8
		c-0.675,0.875-1.275,1.775-1.75,2.375L78.34,10.538z"/>
	<path fill="#D3D3D3" d="M108.939,15.786c0,0-0.05,0.8-0.1,1.175c-0.525,5.399-1.1,7.673-1.925,8.498
		c-0.6,0.65-1.25,0.875-2.024,0.949c-0.7,0.076-1.875,0.076-3.124,0.051c-0.025-0.75-0.325-1.825-0.775-2.524
		c1.05,0.1,2.024,0.1,2.474,0.1c0.45,0,0.675-0.025,0.925-0.3c0.475-0.45,0.975-1.975,1.325-5.349h-2.149
		c-1.299,3.349-3.424,6.323-5.724,8.224c-0.5-0.5-1.674-1.425-2.349-1.825c2.099-1.5,3.874-3.774,4.999-6.398h-2.149
		c-1.85,3.099-4.649,5.773-7.448,7.498c-0.475-0.6-1.575-1.649-2.199-2.125c2.449-1.225,4.724-3.149,6.298-5.374h-2.174
		c-1.225,1.175-2.575,2.225-3.874,3.024c-0.5-0.55-1.625-1.65-2.25-2.1c2.274-1.2,4.474-3,5.999-5.049h-2.2V4.139h16.446v10.123
		H96.167c-0.325,0.525-0.675,1.025-1.05,1.524H108.939z M93.417,8.088h10.498v-1.55H93.417V8.088z M93.417,11.887h10.498v-1.575
		H93.417V11.887z"/>
	<path fill="#D3D3D3" d="M133.764,10.388c-0.524,3.724-1.375,6.773-2.699,9.298c1.125,1.824,2.6,3.249,4.424,4.174
		c-0.675,0.6-1.6,1.774-2.05,2.6c-1.699-1.025-3.099-2.375-4.198-3.999c-1.4,1.625-3.125,2.974-5.299,4.073
		c-0.275-0.699-1.15-2.074-1.7-2.699c2.35-1.025,4.1-2.424,5.374-4.274c-0.675-1.525-1.25-3.224-1.699-5.049
		c-0.375,0.6-0.75,1.2-1.15,1.725c-0.324-0.375-1.024-1.025-1.649-1.55c-0.975,1.125-2.225,2.274-3.449,3.25v0.7
		c1.475-0.125,2.975-0.25,4.475-0.375v2.549c-1.5,0.15-3,0.275-4.475,0.4v2.375c0,1.3-0.225,1.975-1.1,2.375
		c-0.875,0.4-2.049,0.425-3.624,0.425c-0.1-0.775-0.475-1.8-0.85-2.524c1,0.025,2.049,0.025,2.374,0.025
		c0.325-0.025,0.425-0.1,0.425-0.35v-2.1c-1.75,0.15-3.399,0.3-4.749,0.425l-0.325-2.649c1.399-0.1,3.174-0.225,5.074-0.375v-1.424
		c0.675-0.475,1.399-1.1,2.074-1.75h-1.575c-1.2,1-2.474,1.925-3.824,2.675c-0.4-0.575-1.425-1.725-2-2.25
		c0.85-0.45,1.699-0.925,2.499-1.475v-1.25h1.65c0.475-0.4,0.95-0.825,1.375-1.274h-5.199V9.538h3.799V7.863h-2.85v-2.5h2.85V3.089
		h2.749v2.274h2.425v1.75c0.625-1.05,1.149-2.224,1.574-3.399l2.749,0.75c-0.699,1.825-1.574,3.524-2.549,5.074h1.399v1.974
		c1.149-2.374,1.949-5.349,2.425-8.423l2.999,0.475c-0.25,1.375-0.524,2.774-0.875,4.074h6.648v2.75H133.764z M118.442,9.538h0.875
		c0.375-0.55,0.75-1.1,1.125-1.675h-2V9.538z M122.542,13.912c0.425-0.525,0.824-1.149,1.199-1.824h-2.924
		c-0.351,0.45-0.7,0.875-1.075,1.274h1.399l0.525-0.15L122.542,13.912z M127.84,10.388c0.351,2.074,0.851,4.074,1.525,5.849
		c0.6-1.725,1.05-3.649,1.324-5.849H127.84z"/>
	<path fill="#D3D3D3" d="M159.664,7.838h-5.424c1.549,1.3,3.424,2.824,4.448,3.849l-2.499,1.674
		c-0.375-0.425-0.899-0.925-1.475-1.475c-12.022,0.7-13.547,0.725-14.672,1.15c-0.175-0.65-0.675-2.125-0.975-2.949
		c0.525-0.1,1.05-0.4,1.725-0.825c0.375-0.225,1.125-0.75,1.95-1.424h-5.225v-2.6h9.798c-0.274-0.575-0.574-1.149-0.824-1.649
		l2.974-0.825c0.4,0.75,0.925,1.674,1.35,2.474h8.849V7.838z M156.64,23.56c0,1.5-0.425,2.149-1.575,2.524
		c-1.149,0.35-2.849,0.35-5.248,0.35c-0.15-0.725-0.601-1.725-1-2.399c1.55,0.1,3.624,0.1,4.099,0.075c0.525,0,0.7-0.15,0.7-0.575
		v-1.1h-10.022v4.024h-3V13.562h16.047V23.56z M143.593,15.986v1.15h10.022v-1.15H143.593z M153.615,20.385v-1.2h-10.022v1.2
		H153.615z M150.841,8.438l0.949-0.6h-4.523c-0.899,0.75-1.824,1.45-2.749,2.1l7.698-0.325L150.841,8.438z"/>
	<path fill="#D3D3D3" d="M177.266,20.31c2.1,1.55,5.123,2.774,8.073,3.424c-0.65,0.55-1.5,1.7-1.9,2.475
		c-3.074-0.975-6.173-2.7-8.372-4.899v5.149h-3.024v-5.124c-2.25,2.1-5.474,3.899-8.398,4.874c-0.399-0.675-1.25-1.75-1.85-2.3
		c2.824-0.7,5.898-2.049,8.073-3.599h-7.523v-2.424h9.698v-1.274h-7.249V8.088h6.949V3.114h3.074v1.425h8.822v2.35h-8.822v1.2h7.548
		v8.523h-7.298v1.274h9.772v2.424H177.266z M167.768,11.337h11.497v-1.1h-11.497V11.337z M167.768,14.487h11.497v-1.15h-11.497
		V14.487z"/>
	<path fill="#D3D3D3" d="M199.891,7.313c-0.225,0.775-0.475,1.524-0.675,2.25h9.498v16.871h-3.024v-1.274h-14.422v1.274h-2.874
		V9.563h7.698c0.15-0.725,0.3-1.5,0.4-2.25h-9.123V4.514h22.494v2.799H199.891z M191.268,22.435h2.55V12.312h-2.55V22.435z
		 M200.315,12.312h-3.823v1.725h3.823V12.312z M200.315,16.361h-3.823v1.899h3.823V16.361z M196.492,22.435h3.823v-1.85h-3.823
		V22.435z M205.689,12.312h-2.699v10.123h2.699V12.312z"/>
	<path fill="#D3D3D3" d="M223.342,14.787c-1.475,2.524-3.199,4.949-4.899,6.948l9.973-0.6c-0.8-1.2-1.625-2.425-2.374-3.5
		l2.724-1.424c2.075,2.749,4.449,6.298,5.699,8.648l-2.899,1.75c-0.375-0.75-0.825-1.65-1.399-2.625
		c-12.572,0.975-14.347,1.075-15.696,1.575c-0.175-0.675-0.75-2.375-1.15-3.324c0.7-0.2,1.226-0.75,2.05-1.675
		c0.675-0.725,2.324-3.099,3.725-5.773h-6.773v-3.099h22.494v3.099H223.342z M232.239,7.788h-17.096V4.739h17.096V7.788z"/>
</g>
<g>
	<path fill="#D3D3D3" d="M61.696,33.129c0-2.607,1.441-4.17,3.521-4.17c2.08,0,3.532,1.563,3.532,4.17s-1.452,4.225-3.532,4.225
		C63.138,37.354,61.696,35.736,61.696,33.129z M67.439,33.129c0-1.903-0.88-3.059-2.223-3.059s-2.211,1.155-2.211,3.059
		s0.869,3.113,2.211,3.113S67.439,35.032,67.439,33.129z"/>
	<path fill="#D3D3D3" d="M69.682,36.518l0.594-0.814c0.539,0.43,1.067,0.693,1.716,0.693c0.726,0,1.067-0.352,1.067-0.814
		c0-0.55-0.682-0.792-1.342-1.045c-0.803-0.309-1.728-0.737-1.728-1.76c0-1.013,0.814-1.771,2.146-1.771
		c0.814,0,1.474,0.33,1.969,0.715l-0.594,0.781c-0.418-0.309-0.847-0.528-1.353-0.528c-0.66,0-0.968,0.33-0.968,0.748
		c0,0.517,0.627,0.716,1.287,0.957c0.847,0.319,1.782,0.693,1.782,1.837c0,1.013-0.803,1.838-2.299,1.838
		C71.124,37.354,70.266,37.002,69.682,36.518z"/>
	<path fill="#D3D3D3" d="M75.281,33.635h2.904v0.936h-2.904V33.635z"/>
	<path fill="#D3D3D3" d="M79.219,34.195c0-1.969,1.342-3.189,2.761-3.189c1.606,0,2.464,1.154,2.464,2.871
		c0,0.242-0.022,0.495-0.055,0.639h-3.927c0.099,1.154,0.825,1.848,1.87,1.848c0.539,0,1.001-0.165,1.441-0.451l0.44,0.803
		c-0.561,0.375-1.254,0.639-2.046,0.639C80.528,37.354,79.219,36.188,79.219,34.195z M83.355,33.646c0-1.046-0.473-1.65-1.353-1.65
		c-0.759,0-1.43,0.582-1.551,1.65H83.355z"/>
	<path fill="#D3D3D3" d="M85.346,35.604c0-1.297,1.1-1.969,3.62-2.244c-0.011-0.703-0.264-1.32-1.155-1.32
		c-0.638,0-1.232,0.287-1.749,0.617l-0.473-0.858c0.627-0.396,1.474-0.792,2.442-0.792c1.507,0,2.2,0.957,2.2,2.563v3.643h-1.034
		l-0.11-0.693h-0.033c-0.55,0.473-1.199,0.836-1.925,0.836C86.083,37.354,85.346,36.672,85.346,35.604z M88.965,35.648v-1.485
		c-1.793,0.22-2.398,0.671-2.398,1.353c0,0.595,0.407,0.837,0.946,0.837C88.041,36.353,88.47,36.1,88.965,35.648z"/>
	<path fill="#D3D3D3" d="M91.385,36.518l0.594-0.814c0.539,0.43,1.067,0.693,1.716,0.693c0.726,0,1.067-0.352,1.067-0.814
		c0-0.55-0.682-0.792-1.342-1.045c-0.803-0.309-1.728-0.737-1.728-1.76c0-1.013,0.814-1.771,2.146-1.771
		c0.814,0,1.474,0.33,1.969,0.715l-0.594,0.781c-0.418-0.309-0.847-0.528-1.353-0.528c-0.66,0-0.968,0.33-0.968,0.748
		c0,0.517,0.627,0.716,1.287,0.957c0.847,0.319,1.782,0.693,1.782,1.837c0,1.013-0.803,1.838-2.299,1.838
		C92.826,37.354,91.968,37.002,91.385,36.518z"/>
	<path fill="#D3D3D3" d="M99.965,37.574c-0.473,1.297-1.111,2.166-2.388,2.166c-0.308,0-0.55-0.043-0.759-0.121l0.242-0.989
		c0.11,0.032,0.286,0.088,0.44,0.088c0.66,0,1.045-0.484,1.265-1.134l0.121-0.418l-2.398-6.006h1.298l1.122,3.113
		c0.176,0.539,0.363,1.144,0.55,1.705h0.055l0.473-1.705l0.968-3.113h1.232L99.965,37.574z"/>
	<path fill="#D3D3D3" d="M105.432,33.184c0-2.641,1.606-4.225,3.653-4.225c1.012,0,1.804,0.484,2.299,1.023l-0.692,0.814
		c-0.418-0.43-0.925-0.727-1.584-0.727c-1.397,0-2.366,1.166-2.366,3.069c0,1.925,0.902,3.103,2.333,3.103
		c0.737,0,1.309-0.33,1.793-0.857l0.682,0.803c-0.648,0.748-1.474,1.166-2.519,1.166C106.994,37.354,105.432,35.836,105.432,33.184z
		"/>
	<path fill="#D3D3D3" d="M112.868,35.791v-7.349h1.254v7.415c0,0.341,0.154,0.462,0.309,0.462c0.055,0,0.099,0,0.209-0.022
		l0.165,0.957c-0.154,0.056-0.374,0.1-0.683,0.1C113.208,37.354,112.868,36.771,112.868,35.791z"/>
	<path fill="#D3D3D3" d="M115.717,34.195c0-2.023,1.353-3.189,2.85-3.189c1.496,0,2.849,1.166,2.849,3.189
		c0,2.003-1.353,3.158-2.849,3.158C117.07,37.354,115.717,36.198,115.717,34.195z M120.118,34.195c0-1.287-0.594-2.145-1.551-2.145
		c-0.946,0-1.541,0.857-1.541,2.145c0,1.277,0.595,2.124,1.541,2.124C119.524,36.319,120.118,35.473,120.118,34.195z"/>
	<path fill="#D3D3D3" d="M122.823,34.967V31.16h1.266v3.652c0,1.045,0.297,1.451,1.012,1.451c0.562,0,0.946-0.264,1.452-0.901V31.16
		h1.266v6.051h-1.034l-0.1-0.914h-0.032c-0.551,0.639-1.145,1.057-1.98,1.057C123.384,37.354,122.823,36.506,122.823,34.967z"/>
	<path fill="#D3D3D3" d="M129.312,34.195c0-1.969,1.243-3.189,2.597-3.189c0.693,0,1.133,0.264,1.628,0.682l-0.055-1.001v-2.244
		h1.266v8.769h-1.034l-0.11-0.683h-0.033c-0.451,0.462-1.078,0.825-1.76,0.825C130.292,37.354,129.312,36.198,129.312,34.195z
		 M133.482,35.571v-2.96c-0.451-0.406-0.88-0.55-1.331-0.55c-0.848,0-1.529,0.804-1.529,2.112c0,1.375,0.539,2.135,1.485,2.135
		C132.613,36.309,133.042,36.077,133.482,35.571z"/>
	<path fill="#D3D3D3" d="M140.885,30.181h-2.377v-1.067h6.04v1.067h-2.388v7.03h-1.275V30.181z"/>
	<path fill="#D3D3D3" d="M144.547,34.195c0-1.969,1.342-3.189,2.761-3.189c1.606,0,2.465,1.154,2.465,2.871
		c0,0.242-0.022,0.495-0.055,0.639h-3.928c0.099,1.154,0.825,1.848,1.87,1.848c0.539,0,1.001-0.165,1.441-0.451l0.439,0.803
		c-0.561,0.375-1.254,0.639-2.046,0.639C145.856,37.354,144.547,36.188,144.547,34.195z M148.684,33.646
		c0-1.046-0.474-1.65-1.354-1.65c-0.759,0-1.431,0.582-1.552,1.65H148.684z"/>
	<path fill="#D3D3D3" d="M150.674,35.604c0-1.297,1.1-1.969,3.619-2.244c-0.011-0.703-0.264-1.32-1.155-1.32
		c-0.638,0-1.232,0.287-1.749,0.617l-0.474-0.858c0.628-0.396,1.475-0.792,2.442-0.792c1.508,0,2.202,0.957,2.202,2.563v3.643
		h-1.035l-0.11-0.693h-0.033c-0.55,0.473-1.199,0.836-1.925,0.836C151.411,37.354,150.674,36.672,150.674,35.604z M154.293,35.648
		v-1.485c-1.793,0.22-2.398,0.671-2.398,1.353c0,0.595,0.407,0.837,0.946,0.837C153.37,36.353,153.798,36.1,154.293,35.648z"/>
	<path fill="#D3D3D3" d="M156.923,34.195c0-2.023,1.396-3.189,2.992-3.189c0.77,0,1.33,0.308,1.771,0.693l-0.627,0.824
		c-0.33-0.297-0.672-0.473-1.09-0.473c-1.012,0-1.738,0.857-1.738,2.145c0,1.277,0.693,2.124,1.705,2.124
		c0.506,0,0.957-0.242,1.32-0.55l0.518,0.836c-0.551,0.495-1.266,0.748-1.959,0.748C158.177,37.354,156.923,36.198,156.923,34.195z"
		/>
	<path fill="#D3D3D3" d="M163.038,28.442h1.254v2.321l-0.045,1.199c0.529-0.506,1.135-0.957,1.959-0.957
		c1.287,0,1.859,0.857,1.859,2.398v3.807H166.8v-3.652c0-1.046-0.307-1.464-1.023-1.464c-0.561,0-0.945,0.286-1.484,0.825v4.291
		h-1.254V28.442z"/>
	<path fill="#D3D3D3" d="M169.692,29.278c0-0.451,0.342-0.748,0.803-0.748c0.463,0,0.814,0.297,0.814,0.748
		c0,0.44-0.352,0.748-0.814,0.748C170.034,30.026,169.692,29.719,169.692,29.278z M169.868,31.16h1.254v6.051h-1.254V31.16z"/>
	<path fill="#D3D3D3" d="M173.026,31.16h1.033l0.1,0.836h0.033c0.561-0.539,1.178-0.99,2.002-0.99c1.287,0,1.859,0.857,1.859,2.398
		v3.807h-1.266v-3.652c0-1.046-0.307-1.464-1.023-1.464c-0.561,0-0.945,0.286-1.484,0.825v4.291h-1.254V31.16z"/>
	<path fill="#D3D3D3" d="M179.45,38.332c0-0.506,0.318-0.979,0.881-1.32v-0.055c-0.309-0.187-0.551-0.506-0.551-1.001
		c0-0.473,0.342-0.88,0.672-1.122V34.79c-0.408-0.319-0.793-0.892-0.793-1.606c0-1.375,1.09-2.178,2.344-2.178
		c0.34,0,0.648,0.066,0.879,0.154h2.146v0.945h-1.156c0.232,0.242,0.396,0.649,0.396,1.111c0,1.32-1,2.08-2.266,2.08
		c-0.275,0-0.584-0.066-0.848-0.188c-0.197,0.176-0.33,0.352-0.33,0.638c0,0.363,0.242,0.595,1.012,0.595h1.111
		c1.43,0,2.18,0.439,2.18,1.474c0,1.167-1.232,2.112-3.17,2.112C180.507,39.928,179.45,39.389,179.45,38.332z M183.905,38.014
		c0-0.506-0.396-0.66-1.133-0.66h-0.912c-0.287,0-0.563-0.033-0.814-0.088c-0.363,0.264-0.518,0.572-0.518,0.88
		c0,0.595,0.615,0.946,1.617,0.946C183.202,39.092,183.905,38.574,183.905,38.014z M183.147,33.184c0-0.814-0.506-1.287-1.145-1.287
		s-1.145,0.463-1.145,1.287c0,0.803,0.518,1.299,1.145,1.299S183.147,33.986,183.147,33.184z"/>
	<path fill="#D3D3D3" d="M188.833,29.113h2.1c2.488,0,3.906,1.375,3.906,4.016c0,2.629-1.418,4.082-3.84,4.082h-2.166V29.113z
		 M190.845,36.166c1.738,0,2.674-1.023,2.674-3.037c0-2.024-0.936-2.981-2.674-2.981h-0.736v6.019H190.845z"/>
	<path fill="#D3D3D3" d="M195.983,34.195c0-1.969,1.342-3.189,2.76-3.189c1.607,0,2.465,1.154,2.465,2.871
		c0,0.242-0.021,0.495-0.055,0.639h-3.928c0.1,1.154,0.826,1.848,1.871,1.848c0.539,0,1-0.165,1.441-0.451l0.439,0.803
		c-0.561,0.375-1.254,0.639-2.047,0.639C197.292,37.354,195.983,36.188,195.983,34.195z M200.12,33.646
		c0-1.046-0.475-1.65-1.354-1.65c-0.76,0-1.432,0.582-1.553,1.65H200.12z"/>
	<path fill="#D3D3D3" d="M201.989,36.518l0.594-0.814c0.539,0.43,1.066,0.693,1.715,0.693c0.727,0,1.068-0.352,1.068-0.814
		c0-0.55-0.682-0.792-1.342-1.045c-0.805-0.309-1.729-0.737-1.729-1.76c0-1.013,0.814-1.771,2.146-1.771
		c0.814,0,1.475,0.33,1.969,0.715l-0.594,0.781c-0.418-0.309-0.848-0.528-1.354-0.528c-0.66,0-0.969,0.33-0.969,0.748
		c0,0.517,0.627,0.716,1.287,0.957c0.848,0.319,1.783,0.693,1.783,1.837c0,1.013-0.803,1.838-2.299,1.838
		C203.429,37.354,202.571,37.002,201.989,36.518z"/>
	<path fill="#D3D3D3" d="M207.905,28.442h1.232v5.655h0.033l2.377-2.938h1.396l-2.057,2.453l2.287,3.598H211.8l-1.639-2.74
		l-1.023,1.178v1.563h-1.232V28.442z"/>
	<path fill="#D3D3D3" d="M214.122,35.23v-3.059h-0.881v-0.946l0.936-0.065l0.143-1.673h1.066v1.673h1.574v1.012h-1.574v3.069
		c0,0.726,0.254,1.101,0.881,1.101c0.209,0,0.473-0.066,0.648-0.144l0.232,0.935c-0.342,0.111-0.748,0.221-1.189,0.221
		C214.595,37.354,214.122,36.506,214.122,35.23z"/>
	<path fill="#D3D3D3" d="M217.663,34.195c0-2.023,1.354-3.189,2.85-3.189s2.85,1.166,2.85,3.189c0,2.003-1.354,3.158-2.85,3.158
		S217.663,36.198,217.663,34.195z M222.063,34.195c0-1.287-0.594-2.145-1.551-2.145c-0.945,0-1.541,0.857-1.541,2.145
		c0,1.277,0.596,2.124,1.541,2.124C221.47,36.319,222.063,35.473,222.063,34.195z"/>
	<path fill="#D3D3D3" d="M224.847,31.16h1.033l0.1,0.66h0.033c0.527-0.441,1.188-0.814,1.859-0.814c1.539,0,2.398,1.221,2.398,3.08
		c0,2.08-1.244,3.268-2.607,3.268c-0.539,0-1.078-0.242-1.596-0.682l0.033,1.033v1.959h-1.254V31.16z M228.96,34.107
		c0-1.265-0.406-2.046-1.418-2.046c-0.473,0-0.924,0.242-1.441,0.737v2.959c0.473,0.408,0.945,0.551,1.32,0.551
		C228.302,36.309,228.96,35.527,228.96,34.107z"/>
</g>
<g>
	<path fill="#D3D3D3" d="M263.762,20.907c-0.752,1.168-1.809,2.177-3.041,3.025c1.745,0.72,3.777,1.2,5.955,1.457
		c-0.32,0.352-0.753,1.008-0.961,1.424c-0.672-0.096-1.328-0.223-1.969-0.383v4.561h-1.536v-0.479h-5.875v0.513h-1.456v-4.498
		c-0.769,0.224-1.553,0.4-2.321,0.544c-0.128-0.384-0.448-0.977-0.704-1.313c2.049-0.336,4.178-0.928,6.002-1.793
		c-0.656-0.464-1.265-0.976-1.809-1.537c-0.656,0.48-1.408,0.929-2.257,1.329c-0.192-0.336-0.656-0.864-0.977-1.104
		c2.193-0.896,3.714-2.225,4.514-3.425l1.585,0.304c-0.192,0.288-0.416,0.544-0.641,0.816h4.227l0.239-0.064L263.762,20.907z
		 M253.966,20.923h-1.456v-3.186h6.146c-0.208-0.4-0.433-0.816-0.624-1.184l1.473-0.352c0.271,0.448,0.624,1.04,0.864,1.536h5.618
		v3.186h-1.505v-1.841h-10.517V20.923z M262.562,26.125c-1.2-0.352-2.289-0.784-3.313-1.313c-0.96,0.512-1.984,0.944-3.073,1.313
		H262.562z M262.21,29.278v-1.921h-5.875v1.921H262.21z M257.104,21.579c0.576,0.608,1.313,1.152,2.177,1.648
		c0.864-0.528,1.617-1.088,2.209-1.729h-4.29L257.104,21.579z"/>
	<path fill="#D3D3D3" d="M280.866,18.762v6.627h-1.521v-0.944h-8.035c-0.191,2.272-0.736,4.866-2.192,6.69
		c-0.272-0.271-0.929-0.736-1.297-0.896c1.841-2.289,2.033-5.602,2.033-7.955v-3.521h5.122c-0.16-0.624-0.513-1.472-0.801-2.128
		l1.457-0.384c0.352,0.72,0.752,1.648,0.928,2.273l-0.8,0.24H280.866z M279.346,23.052v-2.897h-7.955v2.129
		c0,0.256,0,0.497-0.016,0.769H279.346z"/>
	<path fill="#D3D3D3" d="M289.312,26.829l0.16,1.376c-1.825,0.465-3.729,0.945-5.218,1.313l-0.32-1.473
		c0.784-0.16,1.841-0.384,2.945-0.641c0.336-1.696,0.672-4.354,0.816-6.21l1.28,0.224c-0.256,1.809-0.624,4.098-0.977,5.714
		L289.312,26.829z M289.392,20.619h-5.33v-1.376h5.33V20.619z M285.118,27.021c-0.032-1.505-0.288-3.778-0.593-5.506l1.121-0.208
		c0.336,1.761,0.592,3.985,0.64,5.505L285.118,27.021z M286.847,16.505c0.416,0.705,0.864,1.649,1.057,2.273l-1.313,0.464
		c-0.177-0.656-0.608-1.633-1.009-2.353L286.847,16.505z M294.626,23.356c-0.145,0.432-0.288,0.848-0.433,1.249h3.985v5.138
		c0,0.576-0.079,0.896-0.432,1.104c-0.368,0.192-0.849,0.224-1.537,0.224c-0.048-0.352-0.224-0.863-0.368-1.184
		c0.385,0.016,0.736,0.016,0.865,0.016c0.128,0,0.176-0.048,0.176-0.191v-3.842h-1.2v4.978h-1.169v-4.978h-1.2v5.01h-1.152v-5.01
		h-1.153v5.154h-1.344v-6.419h3.041c0.08-0.4,0.176-0.816,0.224-1.249h-3.697v-1.329h9.268v1.329H294.626z M297.987,21.019h-8.1
		v-3.89h1.36v2.593h1.873v-3.345h1.425v3.345h2.017v-2.593h1.425V21.019z"/>
</g>
</svg>
