<?xml version="1.0" encoding="utf-8"?>
<!-- Generator: Adobe Illustrator 14.0.0, SVG Export Plug-In . SVG Version: 6.00 Build 43363)  -->
<!DOCTYPE svg PUBLIC "-//W3C//DTD SVG 1.1//EN" "http://www.w3.org/Graphics/SVG/1.1/DTD/svg11.dtd">
<svg version="1.1" id="图层_1" xmlns="http://www.w3.org/2000/svg" xmlns:xlink="http://www.w3.org/1999/xlink" x="0px" y="0px"
	 width="249.867px" height="55.096px" viewBox="0 0 249.867 55.096" enable-background="new 0 0 249.867 55.096"
	 xml:space="preserve">
<g>
	<path fill="#D3D4D3" d="M70.3,38.698V20.143h6.543V36.16c0,1.692-0.977,2.539-2.93,2.539L70.3,38.698L70.3,38.698z M72.937,36.646
		h0.586c0.586,0,0.879-0.259,0.879-0.779V22.486h-1.465V36.646z M77.331,35.768v-2.246h5.762v-1.365h3.32v1.365h5.859v2.246h-5.469
		c0.648,1.499,2.569,2.573,5.762,3.225v1.951c-3.776-0.521-6.381-1.597-7.813-3.223c-1.563,1.758-4.231,2.832-8.008,3.223V38.99
		c3.189-0.588,5.176-1.66,5.957-3.225L77.331,35.768L77.331,35.768z M77.722,32.545V19.85h4.49c0.195-0.391,0.325-0.879,0.393-1.465
		h3.516c-0.063,0.261-0.163,0.586-0.293,0.977c-0.063,0.263-0.098,0.427-0.098,0.488h6.055v12.695H89.05V21.998h-8.594v10.547
		H77.722z M88.659,32.057c-1.499-0.781-2.409-1.953-2.734-3.516v3.223h-2.344v-3.418c-0.327,1.628-1.235,2.866-2.732,3.711v-1.66
		c0.716-0.845,1.138-1.79,1.27-2.832h-1.172v-1.953h2.637v-3.223h2.344v3.223h2.639v1.953H87.39c0.13,1.108,0.552,2.053,1.27,2.832
		L88.659,32.057L88.659,32.057z M81.726,25.123c-0.327-0.649-0.586-1.497-0.781-2.539h1.758c0,0.718,0.195,1.563,0.586,2.539H81.726
		z M86.218,25.123c0.325-0.649,0.521-1.497,0.588-2.539h1.758c-0.131,1.042-0.393,1.89-0.781,2.539H86.218z"/>
	<path fill="#D3D4D3" d="M97.155,28.736v-9.473h18.066v6.152c0.13,2.344-0.979,3.452-3.32,3.318h-8.496
		c-0.195,0.456-0.424,0.881-0.684,1.271h13.672v7.422c0.063,2.083-1.108,3.091-3.518,3.027h-2.93v-2.148h1.465
		c0.911,0.065,1.333-0.391,1.271-1.367v-4.59h-1.367c-0.717,4.038-3.483,6.936-8.301,8.691V38.6c2.732-1.431,4.327-3.516,4.783-6.25
		h-2.146c-1.367,4.038-4.753,6.836-10.156,8.398v-2.246c3.255-1.433,5.437-3.481,6.543-6.152h-1.27
		c-1.435,1.237-3.32,2.085-5.664,2.539V32.74c2.212-0.911,3.711-2.246,4.492-4.006L97.155,28.736L97.155,28.736z M100.671,21.51
		v1.465h11.035V21.51H100.671z M100.671,26.49h9.768c0.911,0.063,1.333-0.325,1.27-1.174v-0.391h-11.035L100.671,26.49
		L100.671,26.49z"/>
	<path fill="#D3D4D3" d="M119.812,29.029V26.49h22.461v2.537h-11.621c-1.367,2.932-3.19,5.405-5.469,7.424
		c4.556,0,8.396-0.195,11.521-0.586c-0.391-1.04-0.913-2.148-1.563-3.32h3.318c1.433,2.409,2.441,4.917,3.027,7.52h-3.613
		c-0.063-0.586-0.193-1.106-0.391-1.563c-4.492,0.454-9.213,0.684-14.16,0.684h-1.953v-2.732c2.212-2.278,3.811-4.751,4.785-7.422
		h-6.346v-0.003H119.812z M121.765,22.096v-2.539h18.457v2.539H121.765z"/>
	<path fill="#D3D4D3" d="M145.3,40.162V19.166h9.181c4.945,0,7.422,2.214,7.422,6.641c0.13,4.624-2.377,6.87-7.521,6.738h-5.076
		v7.617H145.3z M149.304,21.705v8.203h4.296c2.93,0.132,4.329-1.235,4.197-4.104c0.064-2.798-1.335-4.165-4.197-4.102
		L149.304,21.705L149.304,21.705z"/>
	<path fill="#D3D4D3" d="M183.093,25.611h-4.004c-0.779-2.732-2.408-4.134-4.883-4.197c-3.907,0.193-5.925,3.025-6.055,8.496
		c0.195,5.144,2.506,7.878,6.934,8.201c2.994,0.065,5.6-1.595,7.813-4.979v3.516c-1.824,2.604-4.754,3.906-8.789,3.906
		c-6.381-0.327-9.734-3.938-10.061-10.84c0.325-6.836,3.646-10.449,9.963-10.84C178.958,19.005,181.985,21.251,183.093,25.611z"/>
</g>
<g>
	<path fill="#D3D4D3" d="M199.131,28.606l1.101,0.426c-0.231,0.26-0.462,0.511-0.692,0.752h6.935v0.859
		c-0.832,0.88-1.937,1.641-3.311,2.276c1.665,0.47,3.695,0.709,6.092,0.718c-0.271,0.355-0.521,0.725-0.752,1.107
		c-2.683-0.188-4.907-0.613-6.678-1.278c-1.945,0.711-4.326,1.229-7.144,1.552c-0.173-0.337-0.384-0.665-0.634-0.982
		c2.531-0.232,4.685-0.615,6.452-1.148c-0.963-0.501-1.742-1.099-2.339-1.791c-0.752,0.656-1.531,1.244-2.339,1.764
		c-0.22-0.235-0.481-0.481-0.782-0.736C196.815,31.018,198.179,29.846,199.131,28.606z M195.011,27.649h6.487
		c-0.271-0.378-0.6-0.777-0.983-1.203l1.021-0.588c0.401,0.419,0.817,0.886,1.249,1.396l-0.69,0.396h6.359v2.559h-1.112v-1.654
		h-11.22v1.641h-1.11V27.649L195.011,27.649z M196.815,35.101h9.805v4.35h-1.112v-0.574h-7.578v0.574h-1.112L196.815,35.101
		L196.815,35.101z M205.508,35.976h-7.578v2.023h7.578V35.976z M204.876,30.657h-5.752c0.677,0.729,1.566,1.322,2.669,1.782
		C203.071,31.944,204.099,31.35,204.876,30.657z"/>
	<path fill="#D3D4D3" d="M215.61,26.474l1.083-0.588c0.479,0.521,0.958,1.085,1.429,1.695l-0.734,0.424h5.607v6.057h-1.203v-0.711
		h-9.497c-0.136,2.625-0.88,4.724-2.231,6.289c-0.271-0.301-0.563-0.602-0.872-0.902c1.283-1.422,1.925-3.555,1.925-6.396v-4.334
		h5.737C216.485,27.494,216.072,26.984,215.61,26.474z M212.317,28.99v3.377h9.475V28.99H212.317z"/>
	<path fill="#D3D4D3" d="M229.289,30.712c-0.189,1.345-0.547,3.235-1.066,5.674c0.517-0.101,0.991-0.2,1.429-0.301
		c-0.01,0.354-0.005,0.679,0.016,0.971c-1.134,0.255-2.788,0.583-4.963,0.984l-0.226-1.025c1.007-0.148,1.925-0.299,2.752-0.444
		c0.491-2.737,0.822-4.751,0.992-6.034L229.289,30.712z M224.642,28.757h5.156v0.889h-5.156V28.757z M224.837,30.903l1.022-0.203
		c0.331,1.304,0.662,2.901,0.993,4.799l-1.038,0.246C225.544,33.92,225.218,32.307,224.837,30.903z M225.875,26.528l0.917-0.49
		c0.592,0.665,1.1,1.349,1.521,2.051l-0.993,0.547C226.958,27.996,226.477,27.294,225.875,26.528z M229.71,31.204h9.73v0.889h-4.512
		l-0.414,1.49h4.219v4.539c0,0.784-0.381,1.176-1.146,1.176c-0.261,0-0.626-0.005-1.098-0.014c-0.07-0.374-0.17-0.711-0.301-1.014
		c0.341,0.027,0.687,0.041,1.038,0.041c0.301,0,0.451-0.142,0.451-0.424V34.43h-1.551v4.293h-1.008V34.43h-1.489v4.211h-1.008V34.43
		h-1.504v4.99h-1.053v-5.838h3.354l0.348-1.49h-4.063v-0.888H229.71z M237.274,30.315v-0.424h-6.798v-3.076h1.053v2.229h2.331v-3.09
		h1.083v3.09h2.331v-2.229h1.053v3.5H237.274z"/>
</g>
<radialGradient id="SVGID_1_" cx="35.0266" cy="821.0549" r="29.9701" fx="59.3389" fy="803.5302" gradientTransform="matrix(1 0 0 1 0.0801 -786.584)" gradientUnits="userSpaceOnUse">
	<stop  offset="0" style="stop-color:#E60012"/>
	<stop  offset="0.1958" style="stop-color:#FFFEF2"/>
	<stop  offset="0.3567" style="stop-color:#EA9432"/>
	<stop  offset="0.4955" style="stop-color:#EA5504"/>
	<stop  offset="0.6361" style="stop-color:#E30113"/>
	<stop  offset="0.8369" style="stop-color:#D80C18"/>
</radialGradient>
<path fill="url(#SVGID_1_)" d="M38.051,27.646c0.089-0.007,0.178-0.014,0.267-0.021c-0.306-0.229-0.566-0.508-0.774-0.821
	c-0.468-0.707-0.667-1.595-0.483-2.489c0.031-0.154,0.073-0.307,0.126-0.452c0.004-0.012,0.009-0.024,0.013-0.036
	c0.056-0.15,0.123-0.297,0.199-0.438l0.018-0.03c0.104-0.185,0.192-0.374,0.269-0.57c0.07-0.188,0.128-0.387,0.17-0.587l0.004-0.023
	c0.223-1.088-0.021-2.167-0.593-3.03c-0.569-0.86-1.469-1.509-2.557-1.729l-0.002-0.001c-1.089-0.223-2.168,0.021-3.032,0.592
	c-0.854,0.566-1.499,1.456-1.726,2.533l-0.003,0.021c-0.02,0.095-0.029,0.157-0.036,0.202c-0.281,1.81,0.36,3.353,1.438,4.513
	c1.1,1.188,2.646,1.981,4.135,2.269c0.104,0.021,0.181,0.033,0.233,0.042C36.412,27.687,37.228,27.703,38.051,27.646 M26.207,35.395
	c-0.028-0.208-0.075-0.414-0.137-0.614c-0.063-0.203-0.141-0.398-0.234-0.591c-0.488-0.996-1.342-1.7-2.32-2.034
	c-0.979-0.335-2.087-0.298-3.085,0.191c-0.996,0.49-1.701,1.342-2.036,2.32c-0.333,0.979-0.296,2.084,0.19,3.078h0.001
	c0.027,0.056,0.061,0.116,0.097,0.182c0.882,1.604,2.333,2.431,3.894,2.691c1.598,0.27,3.308-0.05,4.661-0.731
	c0.063-0.032,0.135-0.069,0.21-0.11c0.68-0.376,1.397-0.919,2.054-1.523l0.033-0.03c-0.381,0.004-0.758-0.056-1.114-0.179
	c-0.803-0.271-1.501-0.854-1.904-1.674h-0.001c-0.078-0.155-0.142-0.313-0.19-0.476c-0.053-0.164-0.089-0.331-0.115-0.498v-0.002
	H26.207z M36.446,31.212l0.511-0.574c-0.25,0.08-0.505,0.151-0.763,0.213c-1.368,0.322-2.827,0.36-4.298,0.063
	c-0.417-0.085-0.822-0.195-1.214-0.326c0.025,0.041,0.053,0.084,0.077,0.125c0.525,0.87,0.904,1.787,1.145,2.723
	c0.158,0.624,0.254,1.259,0.291,1.896l0.062-0.041l0.024-0.018C33.666,34.346,35.061,32.771,36.446,31.212z M43.228,42.255
	c-1.531,0.402-6.39,0.757-7.73,0.459c1.967-1.347,4.431-1.926,5.639-4.549l0,0c0.009-0.02,0.021-0.037,0.029-0.057
	c0.409-0.669,0.688-1.229,0.92-1.699c0.625-1.264,0.966-1.95,2.502-2.514c0.625-0.229,1.327-0.262,1.975-0.107
	c0.575,0.133,1.112,0.413,1.521,0.83c0.419,0.428,0.705,0.994,0.764,1.692c0.056,0.646-0.092,1.4-0.515,2.248
	C47.502,40.221,45.458,41.523,43.228,42.255z M27.633,44.748c-2.229,1.007-5.267,1.25-8.037,0.538
	c-2.425-0.626-4.656-1.979-5.994-4.193c-1.434-2.366-1.771-5.091-1.158-7.583s2.177-4.753,4.545-6.187
	c1.687-1.021,3.557-1.485,5.396-1.445c1.028,0.021,2.047,0.201,3.018,0.529c-0.444-0.709-0.802-1.476-1.06-2.277
	c-0.505-1.58-0.625-3.307-0.27-5.045c0.552-2.715,2.152-4.946,4.292-6.361c2.141-1.415,4.82-2.016,7.533-1.462
	c2.714,0.553,4.945,2.151,6.36,4.293c1.416,2.139,2.016,4.819,1.464,7.533c-0.196,0.967-0.525,1.871-0.966,2.698
	c-0.046,0.088-0.095,0.174-0.144,0.26c1.701-0.739,3.517-1.062,5.281-0.982c2.59,0.112,5.071,1.079,6.938,2.816H54.83l0.016,0.016
	c0.78,0.781,1.374,1.654,1.8,2.581c0.986,2.146,1.069,4.569,0.512,6.85l0,0c-0.557,2.261-1.747,4.385-3.314,5.947
	c-0.81,0.808-1.722,1.468-2.7,1.922c-1.544,0.906-3.479,1.462-5.499,1.812c-3.346,0.579-7.176,0.957-10.427-0.17
	c2.046-0.229,3.575-0.133,7.082-1.373c2.015-0.769,4.126-2.092,6.613-4.233c1.929-1.658,3.081-3.688,3.269-5.474
	c0.07-0.68,0.02-1.334-0.149-1.932c-0.166-0.589-0.446-1.122-0.836-1.574c-0.715-0.828-1.938-1.467-3.387-1.617
	c-3.6-0.375-5.315,1.478-7.712,4.063C36.545,38.531,32.399,42.593,27.633,44.748z"/>
</svg>
