<?xml version="1.0" encoding="utf-8"?>
<!-- Generator: Adobe Illustrator 14.0.0, SVG Export Plug-In . SVG Version: 6.00 Build 43363)  -->
<!DOCTYPE svg PUBLIC "-//W3C//DTD SVG 1.1//EN" "http://www.w3.org/Graphics/SVG/1.1/DTD/svg11.dtd">
<svg version="1.1" id="图层_1" xmlns="http://www.w3.org/2000/svg" xmlns:xlink="http://www.w3.org/1999/xlink" x="0px" y="0px"
	 width="251.67px" height="40.667px" viewBox="0 0 251.67 40.667" enable-background="new 0 0 251.67 40.667" xml:space="preserve">
<radialGradient id="SVGID_1_" cx="575.4668" cy="-249.3071" r="31.2529" fx="578.2154" fy="-220.0083" gradientTransform="matrix(0.5898 0.8075 0.8709 -0.6361 -101.8348 -598.2842)" gradientUnits="userSpaceOnUse">
	<stop  offset="0.1069" style="stop-color:#FDFCEB"/>
	<stop  offset="0.3248" style="stop-color:#E68013"/>
	<stop  offset="0.5065" style="stop-color:#D71718"/>
	<stop  offset="0.525" style="stop-color:#D71718"/>
	<stop  offset="0.6378" style="stop-color:#D71718"/>
	<stop  offset="0.7426" style="stop-color:#D71718"/>
	<stop  offset="0.7613" style="stop-color:#D71718"/>
	<stop  offset="0.8746" style="stop-color:#D71718"/>
	<stop  offset="0.8903" style="stop-color:#D71718"/>
	<stop  offset="0.9855" style="stop-color:#D71718"/>
</radialGradient>
<path fill="url(#SVGID_1_)" d="M28.522,18.578c0.094-0.007,0.188-0.015,0.279-0.023c-0.32-0.242-0.596-0.534-0.813-0.865
	c-0.491-0.744-0.701-1.675-0.509-2.618c0.032-0.162,0.078-0.319,0.132-0.473c0.002-0.015,0.007-0.026,0.011-0.04
	c0.06-0.156,0.13-0.311,0.212-0.461l0.016-0.031c0.11-0.192,0.206-0.394,0.281-0.602c0.076-0.198,0.137-0.406,0.18-0.615
	l0.005-0.024c0.233-1.145-0.023-2.278-0.623-3.186s-1.542-1.583-2.686-1.818l-0.002-0.002c-1.143-0.232-2.279,0.024-3.186,0.623
	c-0.901,0.595-1.577,1.53-1.814,2.661l-0.005,0.021c-0.021,0.098-0.029,0.168-0.036,0.215c-0.297,1.899,0.378,3.522,1.508,4.742
	c1.155,1.247,2.779,2.083,4.345,2.382c0.11,0.021,0.189,0.036,0.247,0.044C26.8,18.624,27.66,18.64,28.522,18.578 M16.077,26.722
	c-0.03-0.22-0.08-0.436-0.144-0.649c-0.066-0.212-0.148-0.417-0.246-0.617c-0.514-1.047-1.411-1.789-2.439-2.138
	c-1.029-0.353-2.193-0.314-3.243,0.203c-1.045,0.512-1.787,1.41-2.138,2.439c-0.351,1.029-0.313,2.188,0.201,3.237l0.002-0.002
	c0.027,0.06,0.062,0.122,0.101,0.192c0.926,1.683,2.451,2.554,4.092,2.827c1.677,0.283,3.475-0.05,4.897-0.769
	c0.068-0.035,0.142-0.074,0.219-0.117c0.714-0.396,1.47-0.965,2.159-1.602l0.037-0.032c-0.402,0.004-0.796-0.06-1.171-0.187
	c-0.844-0.288-1.582-0.897-2.003-1.76l0,0c-0.082-0.164-0.148-0.331-0.201-0.5c-0.055-0.173-0.094-0.347-0.124-0.522v-0.003H16.077z
	 M26.836,22.328l0.536-0.604c-0.262,0.084-0.532,0.159-0.801,0.223c-1.438,0.338-2.971,0.379-4.516,0.065
	c-0.44-0.089-0.865-0.205-1.278-0.344c0.027,0.045,0.055,0.089,0.08,0.131c0.555,0.915,0.952,1.878,1.2,2.859
	c0.169,0.659,0.27,1.324,0.306,1.992l0.069-0.043l0.022-0.019C23.916,25.619,25.383,23.965,26.836,22.328z M33.965,33.933
	c-1.611,0.421-6.714,0.794-8.124,0.481c2.067-1.416,4.655-2.022,5.924-4.78l0,0c0.011-0.021,0.021-0.038,0.032-0.059
	c0.431-0.703,0.724-1.291,0.968-1.787c0.657-1.328,1.015-2.049,2.629-2.64c0.657-0.24,1.394-0.275,2.074-0.116
	c0.604,0.142,1.168,0.436,1.597,0.874c0.44,0.45,0.742,1.045,0.803,1.78c0.057,0.68-0.096,1.472-0.541,2.361
	C38.456,31.794,36.309,33.164,33.965,33.933z M17.576,36.552c-2.343,1.059-5.536,1.314-8.445,0.563
	c-2.549-0.654-4.893-2.078-6.301-4.401c-1.506-2.49-1.862-5.354-1.219-7.973c0.646-2.62,2.289-4.993,4.779-6.5
	c1.773-1.072,3.738-1.561,5.67-1.52c1.082,0.022,2.152,0.212,3.17,0.557c-0.465-0.746-0.842-1.549-1.111-2.394
	c-0.529-1.662-0.657-3.476-0.283-5.304c0.582-2.85,2.264-5.196,4.512-6.684s5.066-2.119,7.914-1.536
	c2.853,0.58,5.198,2.262,6.688,4.509c1.488,2.248,2.116,5.066,1.534,7.917c-0.206,1.016-0.552,1.968-1.013,2.835
	c-0.048,0.092-0.098,0.184-0.151,0.275c1.789-0.78,3.697-1.116,5.55-1.034c2.723,0.119,5.333,1.133,7.291,2.958l0,0l0.016,0.017
	c0.819,0.822,1.442,1.738,1.89,2.712c1.041,2.256,1.125,4.801,0.539,7.195l0,0c-0.584,2.378-1.835,4.61-3.482,6.252
	c-0.851,0.848-1.81,1.541-2.839,2.02c-1.623,0.953-3.658,1.535-5.778,1.906c-3.515,0.607-7.538,1.005-10.956-0.181
	c2.149-0.241,3.758-0.14,7.444-1.442c2.115-0.805,4.336-2.197,6.946-4.447c2.026-1.746,3.238-3.879,3.435-5.755
	c0.073-0.714,0.021-1.401-0.157-2.029c-0.174-0.618-0.47-1.18-0.879-1.654c-0.75-0.872-2.036-1.541-3.56-1.7
	c-3.779-0.393-5.584,1.55-8.103,4.27C26.941,30.018,22.585,34.288,17.576,36.552z"/>
<g>
	<path fill="#D3D3D3" d="M66.174,29.253v2.52h-2.73V10.324h7.38v18.929H66.174z M66.174,13.144v13.259h1.92V13.144H66.174z
		 M82.883,29.644c1.56,2.07,4.29,3.359,8.04,3.869c-0.72,0.631-1.62,1.95-2.04,2.851c-3.87-0.78-6.569-2.431-8.339-5.01
		c-1.44,2.43-4.11,4.05-9.209,5.07c-0.27-0.779-1.05-2.07-1.65-2.67c4.83-0.81,7.11-2.1,8.19-4.109h-6.39v-2.85h7.319
		c0.09-0.57,0.15-1.2,0.21-1.83h3.12c-0.06,0.63-0.12,1.23-0.21,1.83h8.22v2.85H82.883z M74.963,25.773h-2.79V10.804h5.22
		c0.45-0.9,0.87-1.86,1.11-2.67l3.72,0.78c-0.42,0.63-0.84,1.29-1.26,1.89h8.64v14.969h-2.91V13.474h-11.73v9.45
		c0.9-0.57,1.89-1.5,2.58-2.49h-2.01v-2.25h1.65c-0.36-0.81-1.14-2.1-1.74-2.97l2.04-0.96c0.69,0.93,1.47,2.13,1.83,2.88l-2.01,1.05
		h2.22v-4.14h2.49v4.14h4.14v2.25h-2.25c0.72,0.84,1.71,1.92,2.19,2.61l-1.71,1.47c-0.42-0.75-1.41-1.95-2.16-2.82l1.62-1.26h-1.83
		v4.08h-2.49v-3.15c-0.87,1.38-2.07,2.82-3.21,3.72c-0.27-0.6-0.84-1.53-1.35-2.07V25.773z M82.223,17.254
		c0.51-0.87,1.17-2.13,1.5-3l2.4,0.96c-0.81,1.05-1.53,2.13-2.1,2.85L82.223,17.254z"/>
	<path fill="#D3D3D3" d="M118.943,23.554c0,0-0.06,0.96-0.12,1.41c-0.63,6.48-1.32,9.209-2.31,10.2c-0.72,0.779-1.5,1.05-2.43,1.141
		c-0.84,0.09-2.25,0.09-3.75,0.06c-0.03-0.9-0.39-2.19-0.93-3.03c1.26,0.12,2.43,0.12,2.97,0.12c0.54,0,0.81-0.03,1.11-0.36
		c0.57-0.54,1.17-2.37,1.59-6.42h-2.58c-1.56,4.02-4.11,7.589-6.87,9.87c-0.6-0.601-2.01-1.71-2.82-2.19
		c2.52-1.799,4.65-4.529,6-7.679h-2.58c-2.22,3.72-5.58,6.929-8.94,9c-0.57-0.72-1.89-1.979-2.64-2.55
		c2.94-1.47,5.67-3.78,7.56-6.45h-2.61c-1.47,1.41-3.09,2.67-4.65,3.63c-0.6-0.66-1.95-1.98-2.7-2.52c2.73-1.44,5.37-3.6,7.2-6.06
		h-2.64V9.574h19.739v12.149h-12.929c-0.39,0.63-0.81,1.23-1.26,1.83H118.943z M100.314,14.314h12.599v-1.86h-12.599V14.314z
		 M100.314,18.874h12.599v-1.89h-12.599V18.874z"/>
	<path fill="#D3D3D3" d="M136.224,22.354c-1.77,3.03-3.84,5.94-5.88,8.34l11.97-0.72c-0.96-1.44-1.95-2.91-2.85-4.2l3.27-1.71
		c2.49,3.3,5.34,7.56,6.84,10.38l-3.48,2.1c-0.449-0.899-0.989-1.979-1.68-3.149c-15.089,1.17-17.219,1.289-18.839,1.89
		c-0.21-0.81-0.9-2.85-1.38-3.99c0.84-0.24,1.47-0.9,2.46-2.01c0.81-0.87,2.789-3.72,4.47-6.93h-8.13v-3.72h26.999v3.72H136.224z
		 M146.903,13.954h-20.52v-3.66h20.52V13.954z"/>
	<path fill="#D3D3D3" d="M154.224,11.524h7.29c4.92,0,8.7,1.71,8.7,6.96c0,5.07-3.811,7.35-8.58,7.35h-2.97v7.89h-4.44V11.524z
		 M161.334,22.324c3.06,0,4.529-1.29,4.529-3.84c0-2.58-1.62-3.45-4.68-3.45h-2.52v7.29H161.334z"/>
	<path fill="#D3D3D3" d="M173.124,22.713c0-7.319,4.71-11.609,10.319-11.609c2.82,0,5.07,1.35,6.51,2.85l-2.34,2.82
		c-1.11-1.08-2.4-1.86-4.08-1.86c-3.359,0-5.88,2.88-5.88,7.649c0,4.83,2.28,7.74,5.79,7.74c1.89,0,3.39-0.9,4.59-2.19l2.34,2.76
		c-1.83,2.13-4.2,3.271-7.08,3.271C177.684,34.144,173.124,30.123,173.124,22.713z"/>
</g>
<g>
	<path fill="#D3D3D3" d="M216.187,21.371c-0.752,1.168-1.809,2.177-3.041,3.025c1.745,0.72,3.777,1.2,5.955,1.457
		c-0.32,0.352-0.753,1.008-0.961,1.424c-0.672-0.096-1.328-0.224-1.969-0.384v4.562h-1.536v-0.48h-5.875v0.512h-1.456v-4.498
		c-0.769,0.224-1.553,0.4-2.321,0.544c-0.128-0.384-0.448-0.977-0.704-1.313c2.049-0.336,4.178-0.928,6.002-1.793
		c-0.656-0.464-1.265-0.976-1.809-1.537c-0.656,0.48-1.408,0.929-2.257,1.329c-0.192-0.336-0.656-0.864-0.977-1.104
		c2.193-0.896,3.714-2.225,4.514-3.425l1.585,0.304c-0.192,0.288-0.416,0.544-0.641,0.816h4.227l0.239-0.064L216.187,21.371z
		 M206.391,21.387h-1.456v-3.186h6.146c-0.208-0.4-0.433-0.816-0.624-1.184l1.473-0.352c0.271,0.448,0.624,1.04,0.864,1.536h5.618
		v3.186h-1.505v-1.841h-10.517V21.387z M214.986,26.589c-1.2-0.352-2.289-0.784-3.313-1.313c-0.96,0.512-1.984,0.944-3.073,1.313
		H214.986z M214.635,29.742v-1.921h-5.875v1.921H214.635z M209.528,22.043c0.576,0.608,1.313,1.152,2.177,1.648
		c0.864-0.528,1.617-1.088,2.209-1.729h-4.29L209.528,22.043z"/>
	<path fill="#D3D3D3" d="M233.291,19.226v6.627h-1.521v-0.944h-8.035c-0.191,2.273-0.736,4.866-2.192,6.69
		c-0.272-0.272-0.929-0.736-1.297-0.896c1.841-2.289,2.033-5.603,2.033-7.956v-3.521h5.122c-0.16-0.624-0.513-1.472-0.801-2.128
		l1.457-0.384c0.352,0.72,0.752,1.648,0.928,2.273l-0.8,0.24H233.291z M231.771,23.516v-2.897h-7.955v2.129
		c0,0.256,0,0.497-0.016,0.769H231.771z"/>
	<path fill="#D3D3D3" d="M241.736,27.293l0.16,1.376c-1.825,0.464-3.729,0.945-5.218,1.313l-0.32-1.473
		c0.784-0.16,1.841-0.384,2.945-0.641c0.336-1.696,0.672-4.354,0.816-6.21l1.28,0.224c-0.256,1.809-0.624,4.098-0.977,5.714
		L241.736,27.293z M241.816,21.083h-5.33v-1.376h5.33V21.083z M237.543,27.485c-0.032-1.505-0.288-3.778-0.593-5.506l1.121-0.208
		c0.336,1.761,0.592,3.985,0.64,5.506L237.543,27.485z M239.271,16.969c0.416,0.705,0.864,1.649,1.057,2.273l-1.313,0.464
		c-0.177-0.656-0.608-1.633-1.009-2.353L239.271,16.969z M247.051,23.82c-0.145,0.432-0.288,0.848-0.433,1.249h3.985v5.138
		c0,0.577-0.079,0.896-0.432,1.104c-0.368,0.192-0.849,0.224-1.537,0.224c-0.048-0.352-0.224-0.864-0.368-1.185
		c0.385,0.016,0.736,0.016,0.865,0.016c0.128,0,0.176-0.048,0.176-0.192v-3.842h-1.2v4.978h-1.169v-4.978h-1.2v5.01h-1.152v-5.01
		h-1.153v5.154h-1.344v-6.418h3.041c0.08-0.4,0.176-0.816,0.224-1.249h-3.697v-1.329h9.268v1.329H247.051z M250.412,21.483h-8.1
		v-3.89h1.36v2.593h1.873v-3.345h1.425v3.345h2.017v-2.593h1.425V21.483z"/>
</g>
</svg>
