<?xml version="1.0" encoding="utf-8"?>
<!-- Generator: Adobe Illustrator 14.0.0, SVG Export Plug-In . SVG Version: 6.00 Build 43363)  -->
<!DOCTYPE svg PUBLIC "-//W3C//DTD SVG 1.1//EN" "http://www.w3.org/Graphics/SVG/1.1/DTD/svg11.dtd">
<svg version="1.1" id="图层_1" xmlns="http://www.w3.org/2000/svg" xmlns:xlink="http://www.w3.org/1999/xlink" x="0px" y="0px"
	 width="360.544px" height="53.646px" viewBox="0 0 360.544 53.646" enable-background="new 0 0 360.544 53.646"
	 xml:space="preserve">
<g>
	<path fill="#D3D4D3" d="M82.756,36.962c-5.253-0.141-7.941-3.41-8.062-9.814c0.181-6.612,2.868-9.988,8.062-10.128
		c5.131,0.14,7.789,3.516,7.97,10.128C90.545,33.552,87.887,36.821,82.756,36.962z M82.756,20.047c-2.839,0-4.257,2.367-4.257,7.101
		c0,4.664,1.418,6.995,4.257,6.995c2.776,0,4.167-2.331,4.167-6.995C86.922,22.414,85.532,20.047,82.756,20.047z"/>
	<path fill="#D3D4D3" d="M101.534,26.938h-3.17c-0.061-0.836-0.574-1.287-1.54-1.357c-0.906,0-1.359,0.418-1.359,1.253
		c0,0.558,0.754,1.044,2.265,1.462c2.898,0.905,4.348,2.401,4.348,4.489c-0.181,2.506-1.934,3.899-5.253,4.177
		c-3.322-0.07-5.042-1.426-5.163-4.072h3.261c0.121,0.976,0.754,1.498,1.902,1.566c1.087,0,1.63-0.486,1.63-1.462
		c-0.061-0.766-0.846-1.321-2.355-1.671c-2.959-0.626-4.379-2.088-4.257-4.385c0.121-2.366,1.781-3.688,4.982-3.968
		C99.781,22.971,101.353,24.294,101.534,26.938z"/>
	<path fill="#D3D4D3" d="M103.103,31.846v-3.133h11.231v3.133H103.103z"/>
	<path fill="#D3D4D3" d="M126.953,31.114h-7.699c-0.061,2.298,0.603,3.412,1.993,3.342c1.146,0.07,1.871-0.486,2.174-1.671h3.17
		c-0.303,2.785-2.083,4.177-5.344,4.177c-3.745,0.068-5.586-2.228-5.525-6.892c0.181-4.523,2.022-6.891,5.525-7.1
		c2.414,0,4.076,1.044,4.981,3.132c0.362,0.768,0.573,1.566,0.634,2.402C126.921,29.34,126.953,30.211,126.953,31.114z
		 M119.254,28.4h4.076c0-1.88-0.695-2.819-2.083-2.819C119.979,25.581,119.313,26.521,119.254,28.4z"/>
	<path fill="#D3D4D3" d="M131.692,27.147h-3.351c0.06-1.53,0.603-2.645,1.63-3.342c0.784-0.556,1.932-0.835,3.442-0.835
		c3.261,0,4.891,1.671,4.891,5.012v7.309c0,0.141,0.029,0.279,0.09,0.418c0.06,0.278,0.091,0.626,0.091,1.044h-3.08
		c-0.122-0.627-0.181-1.217-0.181-1.775c-0.725,1.394-1.933,2.053-3.623,1.984c-2.477-0.141-3.745-1.426-3.804-3.863
		c0.12-2.019,0.965-3.445,2.536-4.281c1.087-0.486,2.596-0.73,4.529-0.73v-1.253c-0.122-1.044-0.666-1.601-1.63-1.671
		C132.326,25.233,131.813,25.895,131.692,27.147z M134.862,30.488c-2.477-0.209-3.714,0.487-3.714,2.088
		c0.06,1.185,0.634,1.812,1.721,1.88C134.258,34.456,134.921,33.135,134.862,30.488z"/>
	<path fill="#D3D4D3" d="M149.564,26.938h-3.17c-0.061-0.836-0.574-1.287-1.54-1.357c-0.906,0-1.359,0.418-1.359,1.253
		c0,0.558,0.754,1.044,2.265,1.462c2.898,0.905,4.348,2.401,4.348,4.489c-0.181,2.506-1.934,3.899-5.253,4.177
		c-3.322-0.07-5.042-1.426-5.163-4.072h3.261c0.121,0.976,0.754,1.498,1.902,1.566c1.087,0,1.63-0.486,1.63-1.462
		c-0.061-0.766-0.846-1.321-2.355-1.671c-2.959-0.626-4.379-2.088-4.257-4.385c0.121-2.366,1.781-3.688,4.982-3.968
		C147.812,22.971,149.383,24.294,149.564,26.938z"/>
	<path fill="#D3D4D3" d="M156.567,32.576l2.627-9.292h3.442l-5.888,18.376h-3.442l1.449-4.907l-4.438-13.469h3.713L156.567,32.576z"
		/>
	<path fill="#D3D4D3" d="M182.711,23.701h-3.804c-0.122-2.365-1.209-3.584-3.261-3.654c-1.993,0.141-3.05,2.506-3.17,7.101
		c0.121,4.525,1.178,6.856,3.17,6.995c2.113-0.068,3.2-1.287,3.261-3.654h3.804c-0.181,4.246-2.536,6.403-7.064,6.474
		c-4.529-0.141-6.854-3.41-6.975-9.814c0.181-6.542,2.505-9.92,6.975-10.128C180.114,17.089,182.469,19.316,182.711,23.701z"/>
	<path fill="#D3D4D3" d="M184.009,17.437h3.533v19.316h-3.533V17.437z"/>
	<path fill="#D3D4D3" d="M201.429,30.07c-0.182,4.456-2.205,6.751-6.07,6.892c-3.863-0.141-5.887-2.436-6.068-6.892
		c0.182-4.523,2.205-6.891,6.068-7.1C199.224,23.18,201.247,25.547,201.429,30.07z M192.913,30.07c0,2.924,0.816,4.386,2.445,4.386
		c1.691,0,2.537-1.462,2.537-4.386c0.059-2.992-0.785-4.489-2.537-4.489C193.729,25.581,192.913,27.078,192.913,30.07z"/>
	<path fill="#D3D4D3" d="M210.968,36.753l-0.182-1.671c-0.785,1.253-1.963,1.88-3.531,1.88c-2.115-0.209-3.412-1.148-3.896-2.819
		c-0.121-0.557-0.18-1.253-0.18-2.088v-8.771h3.441v8.144c0.059,2.02,0.754,3.028,2.084,3.028c1.326-0.139,2.021-1.148,2.082-3.028
		v-8.144h3.533v11.067c0,0.279,0.029,0.662,0.09,1.148c0,0.558,0,0.976,0,1.253H210.968z"/>
	<path fill="#D3D4D3" d="M224.673,24.85v-7.413h3.533v16.602c0,0.976,0.029,1.88,0.09,2.715h-3.533c0-0.209,0-0.522,0-0.939
		c-0.061-0.418-0.09-0.731-0.09-0.94c-0.666,1.394-1.842,2.089-3.533,2.089c-3.139-0.141-4.83-2.436-5.072-6.892
		c0.242-4.523,2.053-6.891,5.436-7.1C222.831,23.041,223.888,23.667,224.673,24.85z M219.69,30.07
		c-0.061,2.924,0.785,4.386,2.537,4.386c1.508-0.139,2.324-1.601,2.445-4.386c-0.121-2.854-0.938-4.349-2.445-4.489
		C220.476,25.581,219.63,27.078,219.69,30.07z"/>
	<path fill="#D3D4D3" d="M249.187,23.701h-3.805c-0.121-2.365-1.207-3.584-3.26-3.654c-1.992,0.141-3.051,2.506-3.17,7.101
		c0.119,4.525,1.178,6.856,3.17,6.995c2.113-0.068,3.199-1.287,3.26-3.654h3.805c-0.182,4.246-2.535,6.403-7.064,6.474
		c-4.529-0.141-6.854-3.41-6.975-9.814c0.182-6.542,2.506-9.92,6.975-10.128C246.589,17.089,248.944,19.316,249.187,23.701z"/>
	<path fill="#D3D4D3" d="M250.483,17.437h3.531v19.316h-3.531V17.437z"/>
	<path fill="#D3D4D3" d="M259.569,27.147h-3.352c0.061-1.53,0.604-2.645,1.631-3.342c0.783-0.556,1.932-0.835,3.441-0.835
		c3.262,0,4.891,1.671,4.891,5.012v7.309c0,0.141,0.031,0.279,0.092,0.418c0.059,0.278,0.09,0.626,0.09,1.044h-3.08
		c-0.121-0.627-0.18-1.217-0.18-1.775c-0.725,1.394-1.934,2.053-3.623,1.984c-2.477-0.141-3.746-1.426-3.805-3.863
		c0.121-2.019,0.965-3.445,2.535-4.281c1.088-0.486,2.596-0.73,4.529-0.73v-1.253c-0.121-1.044-0.664-1.601-1.631-1.671
		C260.204,25.233,259.69,25.895,259.569,27.147z M262.739,30.488c-2.477-0.209-3.713,0.487-3.713,2.088
		c0.059,1.185,0.633,1.812,1.721,1.88C262.136,34.456,262.8,33.135,262.739,30.488z"/>
	<path fill="#D3D4D3" d="M277.442,26.938h-3.17c-0.063-0.836-0.576-1.287-1.541-1.357c-0.906,0-1.357,0.418-1.357,1.253
		c0,0.558,0.754,1.044,2.264,1.462c2.898,0.905,4.348,2.401,4.348,4.489c-0.182,2.506-1.934,3.899-5.254,4.177
		c-3.32-0.07-5.043-1.426-5.162-4.072h3.26c0.121,0.976,0.756,1.498,1.902,1.566c1.088,0,1.631-0.486,1.631-1.462
		c-0.061-0.766-0.846-1.321-2.355-1.671c-2.959-0.626-4.379-2.088-4.256-4.385c0.119-2.366,1.779-3.688,4.98-3.968
		C275.69,22.971,277.261,24.294,277.442,26.938z"/>
	<path fill="#D3D4D3" d="M288.341,26.938h-3.17c-0.063-0.836-0.576-1.287-1.541-1.357c-0.906,0-1.357,0.418-1.357,1.253
		c0,0.558,0.754,1.044,2.264,1.462c2.898,0.905,4.348,2.401,4.348,4.489c-0.182,2.506-1.934,3.899-5.254,4.177
		c-3.32-0.07-5.043-1.426-5.162-4.072h3.26c0.121,0.976,0.756,1.498,1.902,1.566c1.088,0,1.631-0.486,1.631-1.462
		c-0.061-0.766-0.846-1.321-2.355-1.671c-2.959-0.626-4.379-2.088-4.256-4.385c0.119-2.366,1.779-3.688,4.98-3.968
		C286.589,22.971,288.159,24.294,288.341,26.938z"/>
</g>
<g>
	<path fill="#D3D4D3" d="M310.304,35.716c-0.744,0.445-1.641,0.668-2.689,0.668c-1.406,0-2.537-0.451-3.393-1.354
		s-1.283-2.071-1.283-3.507c0-1.594,0.461-2.878,1.383-3.854c0.924-0.975,2.158-1.463,3.705-1.463c0.891,0,1.652,0.158,2.285,0.475
		v1.705c-0.686-0.504-1.447-0.756-2.285-0.756c-0.984,0-1.785,0.342-2.404,1.023c-0.617,0.684-0.926,1.593-0.926,2.729
		c0,1.119,0.291,1.995,0.873,2.628c0.584,0.633,1.371,0.949,2.361,0.949c0.838,0,1.629-0.275,2.373-0.826V35.716z"/>
	<path fill="#D3D4D3" d="M312.606,36.155V21.768h1.723v14.388H312.606z"/>
	<path fill="#D3D4D3" d="M317.194,23.007c0-0.305,0.104-0.561,0.311-0.77c0.209-0.207,0.465-0.312,0.77-0.312
		c0.311,0,0.572,0.103,0.787,0.308c0.213,0.205,0.32,0.463,0.32,0.773c0,0.305-0.107,0.559-0.32,0.76
		c-0.215,0.203-0.477,0.304-0.787,0.304s-0.568-0.101-0.773-0.304C317.296,23.565,317.194,23.312,317.194,23.007z M317.396,36.155
		v-9.721h1.723v9.721H317.396z"/>
	<path fill="#D3D4D3" d="M330.114,31.734h-6.803c0.029,1.037,0.313,1.839,0.852,2.403c0.539,0.566,1.293,0.849,2.26,0.849
		c1.09,0,2.088-0.349,2.996-1.046v1.538c-0.855,0.604-1.988,0.905-3.4,0.905c-1.406,0-2.504-0.445-3.293-1.336
		c-0.787-0.891-1.182-2.127-1.182-3.709c0-1.488,0.432-2.716,1.297-3.683c0.863-0.967,1.938-1.45,3.221-1.45
		c1.271,0,2.266,0.408,2.98,1.227c0.715,0.816,1.072,1.961,1.072,3.432V31.734z M328.392,30.354
		c-0.006-0.879-0.215-1.559-0.625-2.039s-0.986-0.721-1.73-0.721c-0.686,0-1.279,0.255-1.781,0.765
		c-0.5,0.51-0.814,1.175-0.943,1.995H328.392z"/>
	<path fill="#D3D4D3" d="M340.626,36.155h-1.715v-5.528c0-1.998-0.729-2.997-2.188-2.997c-0.756,0-1.377,0.281-1.863,0.844
		s-0.73,1.274-0.73,2.136v5.546h-1.723v-9.721h1.723v1.608h0.035c0.732-1.225,1.797-1.837,3.191-1.837
		c1.066,0,1.877,0.342,2.434,1.023c0.557,0.684,0.836,1.678,0.836,2.984V36.155z"/>
	<path fill="#D3D4D3" d="M348.167,36.059c-0.375,0.205-0.883,0.308-1.521,0.308c-1.74,0-2.609-0.964-2.609-2.892v-5.616h-1.67
		v-1.424h1.67v-2.338l1.713-0.545v2.883h2.418v1.424h-2.418v5.309c0,0.639,0.109,1.096,0.326,1.371s0.576,0.413,1.08,0.413
		c0.387,0,0.725-0.108,1.012-0.325V36.059z"/>
</g>
<radialGradient id="SVGID_1_" cx="40.2285" cy="31.665" r="29.9698" fx="64.5407" fy="14.1406" gradientUnits="userSpaceOnUse">
	<stop  offset="0" style="stop-color:#E60012"/>
	<stop  offset="0.2037" style="stop-color:#FFFEF2"/>
	<stop  offset="0.3567" style="stop-color:#EA9432"/>
	<stop  offset="0.4955" style="stop-color:#EA5504"/>
	<stop  offset="0.6361" style="stop-color:#E30113"/>
	<stop  offset="0.8369" style="stop-color:#D80C18"/>
</radialGradient>
<path fill-rule="evenodd" clip-rule="evenodd" fill="url(#SVGID_1_)" d="M43.172,24.84c0.088-0.007,0.177-0.013,0.265-0.022
	c-0.305-0.229-0.566-0.508-0.774-0.821c-0.468-0.708-0.667-1.595-0.484-2.49c0.032-0.155,0.074-0.306,0.126-0.452
	c0.004-0.012,0.008-0.025,0.012-0.037c0.056-0.15,0.123-0.296,0.2-0.438l0.017-0.031c0.104-0.184,0.193-0.374,0.268-0.571
	c0.071-0.189,0.128-0.386,0.17-0.587l0.004-0.023c0.222-1.088-0.021-2.167-0.593-3.031c-0.57-0.861-1.468-1.508-2.556-1.729
	l-0.002-0.001c-1.089-0.222-2.168,0.021-3.032,0.592c-0.856,0.566-1.499,1.456-1.726,2.533l-0.003,0.02
	c-0.018,0.094-0.029,0.158-0.036,0.203c-0.281,1.808,0.361,3.351,1.437,4.512c1.099,1.188,2.646,1.982,4.135,2.268
	c0.103,0.02,0.18,0.033,0.234,0.042C41.534,24.882,42.351,24.898,43.172,24.84 M31.328,32.589c-0.029-0.208-0.075-0.414-0.137-0.615
	c-0.062-0.203-0.14-0.398-0.234-0.59c-0.489-0.996-1.342-1.701-2.321-2.035c-0.98-0.334-2.087-0.297-3.085,0.192
	c-0.996,0.491-1.701,1.342-2.036,2.321c-0.333,0.979-0.296,2.084,0.191,3.078h0.001c0.027,0.056,0.06,0.117,0.096,0.182
	c0.882,1.602,2.333,2.43,3.893,2.691c1.598,0.269,3.308-0.049,4.661-0.732c0.064-0.032,0.135-0.069,0.21-0.11
	c0.68-0.376,1.398-0.919,2.054-1.524l0.033-0.031c-0.381,0.004-0.758-0.055-1.114-0.178c-0.803-0.271-1.501-0.854-1.905-1.674
	h-0.001c-0.078-0.155-0.141-0.314-0.191-0.475c-0.052-0.164-0.089-0.331-0.115-0.498V32.589z M41.567,28.407l0.511-0.575
	c-0.25,0.081-0.505,0.152-0.763,0.213c-1.368,0.323-2.827,0.361-4.297,0.062c-0.417-0.085-0.823-0.195-1.214-0.326
	c0.026,0.041,0.052,0.084,0.078,0.125c0.525,0.87,0.904,1.787,1.143,2.722c0.159,0.624,0.254,1.259,0.291,1.896l0.062-0.041
	l0.024-0.017C38.787,31.54,40.184,29.966,41.567,28.407z M48.351,39.45c-1.532,0.402-6.389,0.756-7.731,0.459
	c1.967-1.347,4.43-1.926,5.638-4.549h0c0.009-0.019,0.02-0.037,0.03-0.056c0.409-0.669,0.688-1.229,0.92-1.7
	c0.625-1.263,0.966-1.95,2.502-2.513c0.625-0.228,1.327-0.261,1.974-0.108c0.575,0.133,1.113,0.413,1.521,0.83
	c0.419,0.428,0.705,0.995,0.763,1.693c0.055,0.646-0.091,1.401-0.514,2.248C52.624,37.415,50.58,38.718,48.351,39.45z
	 M32.754,41.943c-2.229,1.007-5.267,1.25-8.038,0.538c-2.424-0.626-4.656-1.98-5.994-4.193c-1.433-2.367-1.771-5.091-1.159-7.583
	c0.613-2.493,2.177-4.753,4.545-6.187c1.687-1.021,3.557-1.485,5.396-1.445c1.028,0.021,2.046,0.201,3.016,0.529
	c-0.444-0.709-0.801-1.475-1.058-2.277c-0.505-1.58-0.625-3.307-0.27-5.045c0.552-2.715,2.153-4.947,4.292-6.362
	c2.141-1.415,4.821-2.015,7.534-1.462s4.946,2.152,6.361,4.293c1.416,2.139,2.015,4.82,1.463,7.534
	c-0.197,0.966-0.526,1.871-0.965,2.698c-0.046,0.088-0.095,0.174-0.144,0.26c1.702-0.74,3.517-1.061,5.282-0.983
	c2.589,0.113,5.072,1.079,6.937,2.817h-0.001l0.015,0.015c0.781,0.782,1.374,1.655,1.8,2.581c0.987,2.146,1.07,4.57,0.511,6.849h0
	c-0.556,2.261-1.747,4.385-3.314,5.948c-0.81,0.807-1.722,1.467-2.701,1.922c-1.544,0.906-3.48,1.461-5.499,1.811
	c-3.345,0.579-7.175,0.957-10.426-0.17c2.045-0.229,3.575-0.133,7.082-1.373c2.014-0.768,4.126-2.092,6.613-4.234
	c1.929-1.659,3.081-3.689,3.268-5.473c0.071-0.68,0.019-1.334-0.15-1.932c-0.166-0.588-0.446-1.122-0.836-1.574
	c-0.714-0.828-1.937-1.467-3.386-1.617c-3.599-0.375-5.316,1.477-7.712,4.063C41.667,35.727,37.521,39.788,32.754,41.943z"/>
</svg>
