<?xml version="1.0" encoding="utf-8"?>
<!-- Generator: Adobe Illustrator 14.0.0, SVG Export Plug-In . SVG Version: 6.00 Build 43363)  -->
<!DOCTYPE svg PUBLIC "-//W3C//DTD SVG 1.1//EN" "http://www.w3.org/Graphics/SVG/1.1/DTD/svg11.dtd">
<svg version="1.1" id="图层_1" xmlns="http://www.w3.org/2000/svg" xmlns:xlink="http://www.w3.org/1999/xlink" x="0px" y="0px"
	 width="341.207px" height="36.333px" viewBox="0 0 341.207 36.333" enable-background="new 0 0 341.207 36.333"
	 xml:space="preserve">
<radialGradient id="SVGID_1_" cx="654.9321" cy="2095.8413" r="24.927" fx="671.8635" fy="2077.5471" gradientTransform="matrix(0.9384 0.3456 -0.3365 0.9138 114.3823 -2119.6882)" gradientUnits="userSpaceOnUse">
	<stop  offset="0" style="stop-color:#FFFEF2"/>
	<stop  offset="0.281" style="stop-color:#F3982D"/>
	<stop  offset="0.4149" style="stop-color:#DE5411"/>
	<stop  offset="0.6" style="stop-color:#DD4D13"/>
	<stop  offset="0.8369" style="stop-color:#E60012"/>
</radialGradient>
<path fill="url(#SVGID_1_)" d="M25.296,16.671c0.08-0.006,0.158-0.013,0.236-0.02c-0.271-0.207-0.508-0.457-0.693-0.74
	c-0.422-0.637-0.602-1.434-0.438-2.24c0.027-0.139,0.066-0.274,0.113-0.406c0.004-0.012,0.008-0.022,0.012-0.034
	c0.049-0.134,0.109-0.266,0.182-0.394l0.014-0.027c0.094-0.164,0.174-0.337,0.24-0.514c0.063-0.17,0.115-0.348,0.152-0.527
	l0.004-0.021c0.199-0.979-0.02-1.949-0.531-2.726c-0.514-0.777-1.32-1.356-2.301-1.557l-0.002-0.001
	c-0.978-0.199-1.949,0.02-2.726,0.533c-0.771,0.51-1.349,1.309-1.554,2.277L18,10.292c-0.016,0.084-0.024,0.143-0.03,0.183
	c-0.255,1.626,0.323,3.015,1.291,4.059c0.987,1.067,2.38,1.783,3.72,2.039c0.092,0.018,0.162,0.03,0.209,0.038
	C23.821,16.708,24.557,16.722,25.296,16.671 M14.644,23.639c-0.025-0.188-0.068-0.373-0.123-0.555
	c-0.057-0.187-0.127-0.357-0.211-0.529c-0.439-0.896-1.207-1.531-2.087-1.83c-0.884-0.301-1.879-0.268-2.774,0.174
	c-0.896,0.439-1.529,1.207-1.83,2.088c-0.302,0.881-0.269,1.873,0.17,2.77l0.002-0.002c0.024,0.058,0.055,0.105,0.086,0.164
	c0.793,1.441,2.099,2.188,3.502,2.42c1.437,0.242,2.976-0.043,4.191-0.651c0.059-0.028,0.121-0.063,0.188-0.104
	c0.611-0.338,1.259-0.826,1.849-1.371l0.03-0.021c-0.344,0.004-0.682-0.057-1.002-0.16c-0.723-0.246-1.352-0.771-1.715-1.506l0,0
	c-0.07-0.146-0.127-0.283-0.172-0.434c-0.047-0.146-0.08-0.297-0.104-0.441V23.639L14.644,23.639z M23.853,19.877l0.459-0.521
	c-0.225,0.072-0.455,0.136-0.686,0.19c-1.23,0.291-2.543,0.326-3.865,0.056c-0.376-0.076-0.74-0.177-1.094-0.295
	c0.024,0.039,0.047,0.075,0.069,0.112c0.474,0.787,0.814,1.607,1.027,2.451c0.146,0.563,0.229,1.133,0.262,1.705l0.058-0.037
	l0.021-0.02C21.353,22.696,22.607,21.28,23.853,19.877z M29.951,29.811c-1.379,0.361-5.746,0.68-6.951,0.412
	c1.77-1.211,3.982-1.73,5.068-4.09h0.002c0.008-0.021,0.018-0.033,0.025-0.051c0.369-0.604,0.619-1.105,0.828-1.529
	c0.563-1.137,0.869-1.754,2.252-2.26c0.561-0.205,1.191-0.236,1.773-0.104c0.518,0.121,1,0.373,1.369,0.748
	c0.377,0.39,0.633,0.896,0.686,1.521c0.049,0.582-0.08,1.265-0.461,2.021C33.798,27.981,31.958,29.153,29.951,29.811z
	 M15.927,32.053c-2.006,0.904-4.737,1.123-7.229,0.479c-2.182-0.56-4.188-1.775-5.394-3.767c-1.289-2.132-1.593-4.582-1.041-6.824
	c0.551-2.239,1.957-4.274,4.088-5.564c1.519-0.918,3.199-1.336,4.854-1.301c0.926,0.02,1.84,0.182,2.713,0.477
	c-0.399-0.639-0.721-1.326-0.951-2.049c-0.454-1.421-0.563-2.974-0.243-4.538c0.498-2.44,1.937-4.448,3.86-5.722
	c1.925-1.273,4.336-1.813,6.775-1.314c2.441,0.496,4.449,1.936,5.723,3.86c1.273,1.924,1.813,4.336,1.314,6.776
	c-0.178,0.869-0.473,1.684-0.867,2.426c-0.043,0.08-0.086,0.158-0.129,0.236c1.529-0.668,3.162-0.955,4.75-0.885
	c2.328,0.102,4.563,0.97,6.24,2.533h-0.002l0.016,0.014c0.701,0.703,1.234,1.488,1.617,2.321c0.889,1.931,0.963,4.109,0.461,6.162
	H42.48c-0.498,2.031-1.57,3.941-2.979,5.351c-0.73,0.728-1.551,1.319-2.43,1.729c-1.389,0.813-3.131,1.313-4.945,1.631
	c-3.01,0.521-6.453,0.858-9.379-0.15c1.84-0.207,3.217-0.119,6.371-1.234c1.811-0.688,3.711-1.88,5.947-3.806
	c1.734-1.494,2.771-3.319,2.938-4.931c0.063-0.606,0.018-1.194-0.135-1.731c-0.148-0.528-0.4-1.015-0.752-1.416
	c-0.643-0.746-1.74-1.319-3.047-1.456c-3.234-0.336-4.779,1.327-6.936,3.65C23.941,26.461,20.214,30.116,15.927,32.053z"/>
<g>
	<path fill="#D3D4D3" d="M62.541,28.004c-5.588-0.148-8.448-3.627-8.577-10.439c0.193-7.034,3.051-10.626,8.577-10.774
		c5.459,0.148,8.286,3.74,8.479,10.774C70.826,24.377,68,27.856,62.541,28.004z M62.541,10.011c-3.02,0-4.529,2.518-4.529,7.555
		c0,4.961,1.509,7.442,4.529,7.442c2.954,0,4.433-2.48,4.433-7.442C66.972,12.529,65.494,10.011,62.541,10.011z"/>
	<path fill="#D3D4D3" d="M82.518,17.342h-3.373c-0.064-0.89-0.61-1.37-1.638-1.444c-0.964,0-1.446,0.445-1.446,1.333
		c0,0.594,0.803,1.11,2.41,1.555c3.083,0.963,4.626,2.555,4.626,4.776c-0.193,2.666-2.058,4.147-5.588,4.442
		c-3.534-0.073-5.364-1.519-5.493-4.33h3.469c0.129,1.037,0.802,1.594,2.024,1.664c1.156,0,1.734-0.52,1.734-1.557
		c-0.065-0.813-0.9-1.404-2.505-1.775c-3.147-0.668-4.658-2.221-4.529-4.667c0.129-2.518,1.895-3.924,5.3-4.222
		C80.653,13.122,82.324,14.529,82.518,17.342z"/>
	<path fill="#D3D4D3" d="M84.187,22.564V19.23h11.948v3.334H84.187z"/>
	<path fill="#D3D4D3" d="M109.56,21.786h-8.191c-0.065,2.443,0.642,3.629,2.121,3.555c1.219,0.074,1.99-0.518,2.313-1.775h3.372
		c-0.322,2.963-2.215,4.441-5.684,4.441c-3.984,0.072-5.943-2.368-5.878-7.332c0.192-4.813,2.151-7.33,5.878-7.552
		c2.568,0,4.336,1.111,5.299,3.333c0.385,0.817,0.61,1.666,0.674,2.553C109.525,19.897,109.56,20.825,109.56,21.786z
		 M101.368,18.897h4.336c0-2-0.74-3-2.216-3C102.139,15.898,101.431,16.898,101.368,18.897z"/>
	<path fill="#D3D4D3" d="M114.601,17.564h-3.565c0.064-1.628,0.642-2.814,1.735-3.555c0.833-0.592,2.055-0.889,3.661-0.889
		c3.47,0,5.204,1.778,5.204,5.333v7.775c0,0.149,0.03,0.297,0.096,0.444c0.063,0.295,0.097,0.666,0.097,1.107h-3.277
		c-0.128-0.667-0.192-1.294-0.192-1.888c-0.772,1.479-2.056,2.187-3.854,2.108c-2.636-0.147-3.984-1.518-4.046-4.107
		c0.127-2.146,1.026-3.665,2.697-4.555c1.158-0.518,2.763-0.776,4.818-0.776V17.23c-0.128-1.11-0.708-1.703-1.734-1.777
		C115.276,15.528,114.73,16.232,114.601,17.564z M117.972,21.12c-2.634-0.224-3.951,0.52-3.951,2.221
		c0.063,1.262,0.674,1.93,1.832,2C117.331,25.338,118.034,23.934,117.972,21.12z"/>
	<path fill="#D3D4D3" d="M133.613,17.342h-3.372c-0.065-0.89-0.611-1.37-1.638-1.444c-0.964,0-1.446,0.445-1.446,1.333
		c0,0.594,0.802,1.11,2.41,1.555c3.083,0.963,4.625,2.555,4.625,4.776c-0.192,2.666-2.057,4.147-5.588,4.442
		c-3.533-0.073-5.364-1.519-5.493-4.33h3.47c0.129,1.037,0.802,1.594,2.023,1.664c1.156,0,1.734-0.52,1.734-1.557
		c-0.064-0.813-0.9-1.404-2.506-1.775c-3.148-0.668-4.659-2.221-4.527-4.667c0.128-2.518,1.894-3.924,5.299-4.222
		C131.75,13.122,133.422,14.529,133.613,17.342z"/>
	<path fill="#D3D4D3" d="M141.063,23.338l2.795-9.884h3.662l-6.265,19.548h-3.662l1.541-5.223l-4.721-14.328h3.95L141.063,23.338z"
		/>
	<path fill="#D3D4D3" d="M168.876,13.898h-4.047c-0.129-2.516-1.285-3.813-3.469-3.887c-2.121,0.15-3.244,2.666-3.373,7.555
		c0.129,4.813,1.254,7.293,3.373,7.442c2.246-0.073,3.404-1.369,3.469-3.889h4.047c-0.191,4.518-2.699,6.813-7.516,6.887
		c-4.818-0.148-7.289-3.627-7.418-10.439c0.189-6.959,2.664-10.553,7.418-10.774C166.112,6.864,168.618,9.233,168.876,13.898z"/>
	<path fill="#D3D4D3" d="M170.257,7.235h3.758v20.549h-3.758V7.235z"/>
	<path fill="#D3D4D3" d="M188.791,20.672c-0.195,4.742-2.349,7.184-6.459,7.332c-4.109-0.147-6.265-2.59-6.455-7.332
		c0.192-4.813,2.346-7.331,6.455-7.552C186.444,13.344,188.594,15.862,188.791,20.672z M179.729,20.672
		c0,3.111,0.867,4.666,2.603,4.666c1.799,0,2.698-1.555,2.698-4.666c0.063-3.183-0.836-4.774-2.698-4.774
		C180.596,15.898,179.729,17.491,179.729,20.672z"/>
	<path fill="#D3D4D3" d="M198.936,27.784l-0.192-1.777c-0.834,1.332-2.089,2-3.757,2c-2.25-0.223-3.631-1.221-4.146-2.998
		c-0.129-0.594-0.189-1.334-0.189-2.223v-9.331h3.66v8.663c0.063,2.149,0.803,3.223,2.217,3.223
		c1.412-0.146,2.148-1.221,2.215-3.223v-8.663h3.76v11.773c0,0.296,0.031,0.705,0.097,1.222c0,0.594,0,1.038,0,1.332L198.936,27.784
		L198.936,27.784z"/>
	<path fill="#D3D4D3" d="M213.514,15.121V7.235h3.762v17.661c0,1.039,0.029,2,0.097,2.888h-3.759c0-0.222,0-0.555,0-0.998
		c-0.065-0.443-0.1-0.777-0.1-1c-0.709,1.483-1.959,2.223-3.759,2.223c-3.34-0.147-5.139-2.592-5.395-7.329
		c0.258-4.813,2.186-7.331,5.783-7.553C211.555,13.196,212.68,13.862,213.514,15.121z M208.214,20.672
		c-0.063,3.111,0.836,4.666,2.699,4.666c1.604-0.146,2.473-1.7,2.602-4.666c-0.129-3.035-0.996-4.625-2.602-4.774
		C209.052,15.898,208.151,17.491,208.214,20.672z"/>
	<path fill="#D3D4D3" d="M239.594,13.898h-4.05c-0.127-2.516-1.282-3.813-3.469-3.887c-2.119,0.15-3.244,2.666-3.371,7.555
		c0.127,4.813,1.252,7.293,3.371,7.442c2.248-0.073,3.404-1.369,3.469-3.889h4.05c-0.193,4.518-2.695,6.813-7.515,6.887
		c-4.817-0.148-7.293-3.627-7.422-10.439c0.193-6.959,2.664-10.553,7.422-10.774C236.832,6.864,239.337,9.233,239.594,13.898z"/>
	<path fill="#D3D4D3" d="M240.973,7.235h3.758v20.549h-3.758V7.235z"/>
	<path fill="#D3D4D3" d="M250.639,17.564h-3.563c0.063-1.628,0.643-2.814,1.733-3.555c0.834-0.592,2.058-0.889,3.66-0.889
		c3.471,0,5.202,1.778,5.202,5.333v7.775c0,0.149,0.033,0.297,0.101,0.444c0.063,0.295,0.097,0.666,0.097,1.107h-3.277
		c-0.129-0.667-0.189-1.294-0.189-1.888c-0.771,1.479-2.059,2.187-3.854,2.108c-2.637-0.147-3.984-1.518-4.049-4.107
		c0.129-2.146,1.024-3.665,2.696-4.555c1.156-0.518,2.763-0.776,4.816-0.776V17.23c-0.13-1.11-0.705-1.703-1.734-1.777
		C251.315,15.528,250.77,16.232,250.639,17.564z M254.009,21.12c-2.635-0.224-3.946,0.52-3.946,2.221c0.063,1.262,0.674,1.93,1.83,2
		C253.373,25.338,254.076,23.934,254.009,21.12z"/>
	<path fill="#D3D4D3" d="M269.653,17.342h-3.373c-0.063-0.89-0.61-1.37-1.641-1.444c-0.963,0-1.443,0.445-1.443,1.333
		c0,0.594,0.806,1.11,2.41,1.555c3.082,0.963,4.625,2.555,4.625,4.776c-0.19,2.666-2.06,4.147-5.59,4.442
		c-3.531-0.073-5.363-1.519-5.49-4.33h3.47c0.129,1.037,0.805,1.594,2.021,1.664c1.155,0,1.733-0.52,1.733-1.557
		c-0.063-0.813-0.897-1.404-2.504-1.775c-3.147-0.668-4.658-2.221-4.526-4.667c0.125-2.518,1.893-3.924,5.297-4.222
		C267.791,13.122,269.462,14.529,269.653,17.342z"/>
	<path fill="#D3D4D3" d="M281.248,17.342h-3.373c-0.063-0.89-0.607-1.37-1.64-1.444c-0.963,0-1.442,0.445-1.442,1.333
		c0,0.594,0.805,1.11,2.41,1.555c3.082,0.963,4.625,2.555,4.625,4.776c-0.191,2.666-2.058,4.147-5.591,4.442
		c-3.53-0.073-5.364-1.519-5.491-4.33h3.471c0.129,1.037,0.805,1.594,2.021,1.664c1.158,0,1.734-0.52,1.734-1.557
		c-0.063-0.813-0.897-1.404-2.507-1.775c-3.146-0.668-4.657-2.221-4.526-4.667c0.127-2.518,1.894-3.924,5.299-4.222
		C279.385,13.122,281.055,14.529,281.248,17.342z"/>
</g>
<g>
	<path fill="#D3D4D3" d="M300.573,28.059c-0.744,0.445-1.641,0.668-2.688,0.668c-1.406,0-2.537-0.45-3.396-1.354
		c-0.854-0.904-1.283-2.072-1.283-3.51c0-1.594,0.461-2.878,1.386-3.854c0.924-0.977,2.155-1.463,3.703-1.463
		c0.893,0,1.651,0.159,2.284,0.476v1.704c-0.686-0.504-1.444-0.756-2.284-0.756c-0.982,0-1.783,0.343-2.402,1.021
		c-0.617,0.686-0.926,1.592-0.926,2.729c0,1.118,0.29,1.995,0.87,2.628c0.586,0.634,1.371,0.947,2.361,0.947
		c0.838,0,1.629-0.272,2.373-0.824L300.573,28.059L300.573,28.059z"/>
	<path fill="#D3D4D3" d="M302.876,28.499V14.112h1.725V28.5L302.876,28.499L302.876,28.499z"/>
	<path fill="#D3D4D3" d="M307.466,15.35c0-0.305,0.104-0.561,0.313-0.77c0.209-0.207,0.465-0.313,0.771-0.313
		c0.313,0,0.571,0.104,0.787,0.309c0.213,0.205,0.319,0.463,0.319,0.772c0,0.306-0.106,0.56-0.319,0.761
		c-0.216,0.202-0.478,0.304-0.787,0.304c-0.311,0-0.568-0.102-0.771-0.304C307.567,15.909,307.466,15.656,307.466,15.35z
		 M307.665,28.499v-9.721h1.728v9.721H307.665z"/>
	<path fill="#D3D4D3" d="M320.385,24.079h-6.808c0.029,1.037,0.314,1.838,0.855,2.402c0.539,0.564,1.293,0.85,2.26,0.85
		c1.09,0,2.088-0.35,2.996-1.047v1.539c-0.854,0.604-1.988,0.903-3.4,0.903c-1.403,0-2.504-0.444-3.293-1.336
		c-0.786-0.892-1.182-2.127-1.182-3.709c0-1.487,0.432-2.716,1.297-3.683c0.863-0.969,1.938-1.452,3.222-1.452
		c1.271,0,2.268,0.409,2.979,1.228c0.715,0.813,1.072,1.961,1.072,3.433L320.385,24.079L320.385,24.079z M318.661,22.698
		c-0.006-0.879-0.215-1.56-0.625-2.039c-0.409-0.479-0.981-0.722-1.729-0.722c-0.688,0-1.279,0.256-1.781,0.767
		c-0.5,0.51-0.813,1.174-0.943,1.994H318.661z"/>
	<path fill="#D3D4D3" d="M330.897,28.499h-1.715v-5.525c0-1.998-0.73-2.997-2.189-2.997c-0.756,0-1.377,0.28-1.862,0.845
		c-0.484,0.563-0.729,1.271-0.729,2.139v5.545h-1.723v-9.723h1.723v1.607h0.035c0.729-1.227,1.797-1.837,3.188-1.837
		c1.066,0,1.878,0.342,2.438,1.023c0.557,0.686,0.836,1.68,0.836,2.983L330.897,28.499L330.897,28.499z"/>
	<path fill="#D3D4D3" d="M338.438,28.403c-0.375,0.205-0.883,0.309-1.521,0.309c-1.739,0-2.608-0.965-2.608-2.893v-5.615h-1.67
		v-1.425h1.67v-2.338l1.715-0.546v2.884h2.418v1.425h-2.418v5.31c0,0.64,0.107,1.097,0.324,1.37c0.219,0.273,0.576,0.412,1.08,0.412
		c0.389,0,0.727-0.106,1.014-0.323v1.433L338.438,28.403L338.438,28.403z"/>
</g>
</svg>
